<mxfile host="app.diagrams.net" modified="2024-05-27T13:20:08.212Z" agent="Mozilla/5.0 (Windows NT 10.0; Win64; x64) AppleWebKit/537.36 (KHTML, like Gecko) Chrome/125.0.0.0 Safari/537.36 Edg/125.0.0.0" etag="z4E9eP5d8BOxzk7Aq5TU" version="24.4.9" type="device">
  <diagram id="-hjjJM7N25xlnNK5RcYT" name="페이지-5">
    <mxGraphModel dx="1282" dy="569" grid="1" gridSize="10" guides="1" tooltips="1" connect="1" arrows="1" fold="1" page="1" pageScale="1" pageWidth="827" pageHeight="1169" math="0" shadow="0">
      <root>
        <mxCell id="0" />
        <mxCell id="1" parent="0" />
        <mxCell id="YwnwrQjZ86Df8MzwOB_l-1" value="" style="html=1;whiteSpace=wrap;" parent="1" vertex="1">
          <mxGeometry x="244.62" y="2190" width="730.75" height="520" as="geometry" />
        </mxCell>
        <mxCell id="CxO0_cY2as7vrh8StBCu-41" value="" style="html=1;whiteSpace=wrap;" parent="1" vertex="1">
          <mxGeometry x="274.5" y="2287.5" width="670" height="325" as="geometry" />
        </mxCell>
        <mxCell id="CxO0_cY2as7vrh8StBCu-31" value="" style="html=1;whiteSpace=wrap;" parent="1" vertex="1">
          <mxGeometry x="160" y="1670" width="684" height="420" as="geometry" />
        </mxCell>
        <mxCell id="CxO0_cY2as7vrh8StBCu-40" value="" style="html=1;whiteSpace=wrap;" parent="1" vertex="1">
          <mxGeometry x="190" y="1929" width="630" height="140" as="geometry" />
        </mxCell>
        <mxCell id="CxO0_cY2as7vrh8StBCu-39" value="" style="html=1;whiteSpace=wrap;" parent="1" vertex="1">
          <mxGeometry x="180" y="1710" width="630" height="140" as="geometry" />
        </mxCell>
        <mxCell id="CxO0_cY2as7vrh8StBCu-30" value="" style="html=1;whiteSpace=wrap;" parent="1" vertex="1">
          <mxGeometry x="191" y="1030" width="530" height="415" as="geometry" />
        </mxCell>
        <mxCell id="CxO0_cY2as7vrh8StBCu-38" value="" style="html=1;whiteSpace=wrap;" parent="1" vertex="1">
          <mxGeometry x="210" y="1248.63" width="493.5" height="130.75" as="geometry" />
        </mxCell>
        <mxCell id="CxO0_cY2as7vrh8StBCu-37" value="" style="html=1;whiteSpace=wrap;" parent="1" vertex="1">
          <mxGeometry x="212.25" y="1053.63" width="493.5" height="130.75" as="geometry" />
        </mxCell>
        <mxCell id="CxO0_cY2as7vrh8StBCu-29" value="" style="html=1;whiteSpace=wrap;" parent="1" vertex="1">
          <mxGeometry x="157" y="500" width="530" height="415" as="geometry" />
        </mxCell>
        <mxCell id="CxO0_cY2as7vrh8StBCu-36" value="" style="html=1;whiteSpace=wrap;" parent="1" vertex="1">
          <mxGeometry x="210" y="520" width="440" height="370" as="geometry" />
        </mxCell>
        <mxCell id="CxO0_cY2as7vrh8StBCu-28" value="" style="html=1;whiteSpace=wrap;" parent="1" vertex="1">
          <mxGeometry x="160" y="5" width="530" height="415" as="geometry" />
        </mxCell>
        <mxCell id="CxO0_cY2as7vrh8StBCu-33" value="" style="html=1;whiteSpace=wrap;" parent="1" vertex="1">
          <mxGeometry x="210" y="30" width="440" height="370" as="geometry" />
        </mxCell>
        <mxCell id="88W-80z6NXVtviiwKCgK-2" value="User" style="shape=umlActor;verticalLabelPosition=bottom;verticalAlign=top;html=1;" parent="1" vertex="1">
          <mxGeometry x="240" y="40" width="30" height="60" as="geometry" />
        </mxCell>
        <mxCell id="88W-80z6NXVtviiwKCgK-3" value="" style="html=1;points=[[0,0,0,0,5],[0,1,0,0,-5],[1,0,0,0,5],[1,1,0,0,-5]];perimeter=orthogonalPerimeter;outlineConnect=0;targetShapes=umlLifeline;portConstraint=eastwest;newEdgeStyle={&quot;curved&quot;:0,&quot;rounded&quot;:0};" parent="1" vertex="1">
          <mxGeometry x="250" y="160" width="10" height="80" as="geometry" />
        </mxCell>
        <mxCell id="88W-80z6NXVtviiwKCgK-4" value="" style="endArrow=block;endFill=1;html=1;edgeStyle=orthogonalEdgeStyle;align=left;verticalAlign=top;rounded=0;" parent="1" edge="1">
          <mxGeometry x="-1" relative="1" as="geometry">
            <mxPoint x="261" y="190" as="sourcePoint" />
            <mxPoint x="410" y="190" as="targetPoint" />
          </mxGeometry>
        </mxCell>
        <mxCell id="88W-80z6NXVtviiwKCgK-5" value="&amp;nbsp; &amp;nbsp;1. 내게쓰기 메뉴 선택" style="edgeLabel;resizable=0;html=1;align=left;verticalAlign=bottom;" parent="88W-80z6NXVtviiwKCgK-4" connectable="0" vertex="1">
          <mxGeometry x="-1" relative="1" as="geometry" />
        </mxCell>
        <mxCell id="88W-80z6NXVtviiwKCgK-6" value="" style="html=1;points=[[0,0,0,0,5],[0,1,0,0,-5],[1,0,0,0,5],[1,1,0,0,-5]];perimeter=orthogonalPerimeter;outlineConnect=0;targetShapes=umlLifeline;portConstraint=eastwest;newEdgeStyle={&quot;curved&quot;:0,&quot;rounded&quot;:0};" parent="1" vertex="1">
          <mxGeometry x="412" y="160" width="10" height="80" as="geometry" />
        </mxCell>
        <mxCell id="88W-80z6NXVtviiwKCgK-7" value="" style="html=1;points=[[0,0,0,0,5],[0,1,0,0,-5],[1,0,0,0,5],[1,1,0,0,-5]];perimeter=orthogonalPerimeter;outlineConnect=0;targetShapes=umlLifeline;portConstraint=eastwest;newEdgeStyle={&quot;curved&quot;:0,&quot;rounded&quot;:0};" parent="1" vertex="1">
          <mxGeometry x="417" y="173" width="10" height="50" as="geometry" />
        </mxCell>
        <mxCell id="88W-80z6NXVtviiwKCgK-9" value=":System" style="html=1;whiteSpace=wrap;" parent="1" vertex="1">
          <mxGeometry x="362" y="55" width="110" height="50" as="geometry" />
        </mxCell>
        <mxCell id="88W-80z6NXVtviiwKCgK-10" value="MailServer" style="shape=umlActor;verticalLabelPosition=bottom;verticalAlign=top;html=1;" parent="1" vertex="1">
          <mxGeometry x="580" y="40" width="30" height="60" as="geometry" />
        </mxCell>
        <mxCell id="88W-80z6NXVtviiwKCgK-13" value="" style="html=1;points=[[0,0,0,0,5],[0,1,0,0,-5],[1,0,0,0,5],[1,1,0,0,-5]];perimeter=orthogonalPerimeter;outlineConnect=0;targetShapes=umlLifeline;portConstraint=eastwest;newEdgeStyle={&quot;curved&quot;:0,&quot;rounded&quot;:0};" parent="1" vertex="1">
          <mxGeometry x="590" y="160" width="10" height="80" as="geometry" />
        </mxCell>
        <mxCell id="88W-80z6NXVtviiwKCgK-16" value="" style="endArrow=block;endFill=1;html=1;edgeStyle=orthogonalEdgeStyle;align=left;verticalAlign=top;rounded=0;entryX=0;entryY=0.644;entryDx=0;entryDy=0;entryPerimeter=0;" parent="1" target="88W-80z6NXVtviiwKCgK-13" edge="1">
          <mxGeometry x="-1" relative="1" as="geometry">
            <mxPoint x="428" y="211.5" as="sourcePoint" />
            <mxPoint x="560" y="211.5" as="targetPoint" />
          </mxGeometry>
        </mxCell>
        <mxCell id="88W-80z6NXVtviiwKCgK-17" value="&amp;nbsp; &amp;nbsp;2. 내게 쓴 메일 저장" style="edgeLabel;resizable=0;html=1;align=left;verticalAlign=bottom;" parent="88W-80z6NXVtviiwKCgK-16" connectable="0" vertex="1">
          <mxGeometry x="-1" relative="1" as="geometry" />
        </mxCell>
        <mxCell id="88W-80z6NXVtviiwKCgK-19" value="" style="html=1;points=[[0,0,0,0,5],[0,1,0,0,-5],[1,0,0,0,5],[1,1,0,0,-5]];perimeter=orthogonalPerimeter;outlineConnect=0;targetShapes=umlLifeline;portConstraint=eastwest;newEdgeStyle={&quot;curved&quot;:0,&quot;rounded&quot;:0};" parent="1" vertex="1">
          <mxGeometry x="250" y="260" width="10" height="100" as="geometry" />
        </mxCell>
        <mxCell id="88W-80z6NXVtviiwKCgK-24" value="" style="html=1;points=[[0,0,0,0,5],[0,1,0,0,-5],[1,0,0,0,5],[1,1,0,0,-5]];perimeter=orthogonalPerimeter;outlineConnect=0;targetShapes=umlLifeline;portConstraint=eastwest;newEdgeStyle={&quot;curved&quot;:0,&quot;rounded&quot;:0};" parent="1" vertex="1">
          <mxGeometry x="412" y="260" width="10" height="100" as="geometry" />
        </mxCell>
        <mxCell id="88W-80z6NXVtviiwKCgK-25" value="" style="html=1;points=[[0,0,0,0,5],[0,1,0,0,-5],[1,0,0,0,5],[1,1,0,0,-5]];perimeter=orthogonalPerimeter;outlineConnect=0;targetShapes=umlLifeline;portConstraint=eastwest;newEdgeStyle={&quot;curved&quot;:0,&quot;rounded&quot;:0};" parent="1" vertex="1">
          <mxGeometry x="417" y="275" width="10" height="70" as="geometry" />
        </mxCell>
        <mxCell id="88W-80z6NXVtviiwKCgK-26" value="" style="html=1;points=[[0,0,0,0,5],[0,1,0,0,-5],[1,0,0,0,5],[1,1,0,0,-5]];perimeter=orthogonalPerimeter;outlineConnect=0;targetShapes=umlLifeline;portConstraint=eastwest;newEdgeStyle={&quot;curved&quot;:0,&quot;rounded&quot;:0};" parent="1" vertex="1">
          <mxGeometry x="590" y="270" width="10" height="80" as="geometry" />
        </mxCell>
        <mxCell id="88W-80z6NXVtviiwKCgK-29" value="" style="endArrow=block;endFill=1;html=1;edgeStyle=orthogonalEdgeStyle;align=left;verticalAlign=top;rounded=0;" parent="1" edge="1">
          <mxGeometry x="-1" relative="1" as="geometry">
            <mxPoint x="261" y="290" as="sourcePoint" />
            <mxPoint x="410" y="290" as="targetPoint" />
          </mxGeometry>
        </mxCell>
        <mxCell id="88W-80z6NXVtviiwKCgK-30" value="&amp;nbsp;3. 내게 보낸 메일 목록 선택" style="edgeLabel;resizable=0;html=1;align=left;verticalAlign=bottom;" parent="88W-80z6NXVtviiwKCgK-29" connectable="0" vertex="1">
          <mxGeometry x="-1" relative="1" as="geometry" />
        </mxCell>
        <mxCell id="88W-80z6NXVtviiwKCgK-31" value="" style="endArrow=block;endFill=1;html=1;edgeStyle=orthogonalEdgeStyle;align=left;verticalAlign=top;rounded=0;entryX=0;entryY=0.4;entryDx=0;entryDy=0;entryPerimeter=0;" parent="1" target="88W-80z6NXVtviiwKCgK-26" edge="1">
          <mxGeometry x="-1" relative="1" as="geometry">
            <mxPoint x="427" y="300" as="sourcePoint" />
            <mxPoint x="559" y="300" as="targetPoint" />
            <Array as="points">
              <mxPoint x="427" y="301" />
              <mxPoint x="590" y="301" />
            </Array>
          </mxGeometry>
        </mxCell>
        <mxCell id="88W-80z6NXVtviiwKCgK-32" value="&amp;nbsp; &amp;nbsp;4. 내게 보낸 메일 목록 검색" style="edgeLabel;resizable=0;html=1;align=left;verticalAlign=bottom;" parent="88W-80z6NXVtviiwKCgK-31" connectable="0" vertex="1">
          <mxGeometry x="-1" relative="1" as="geometry" />
        </mxCell>
        <mxCell id="88W-80z6NXVtviiwKCgK-33" value="5. 리스트 제공" style="html=1;verticalAlign=bottom;endArrow=open;dashed=1;endSize=8;curved=0;rounded=0;" parent="1" target="88W-80z6NXVtviiwKCgK-25" edge="1">
          <mxGeometry relative="1" as="geometry">
            <mxPoint x="590" y="330" as="sourcePoint" />
            <mxPoint x="510" y="330" as="targetPoint" />
          </mxGeometry>
        </mxCell>
        <mxCell id="88W-80z6NXVtviiwKCgK-34" value="6. 내게 보낸 메일 목록 출력" style="html=1;verticalAlign=bottom;endArrow=open;dashed=1;endSize=8;curved=0;rounded=0;" parent="1" target="88W-80z6NXVtviiwKCgK-19" edge="1">
          <mxGeometry relative="1" as="geometry">
            <mxPoint x="410" y="350" as="sourcePoint" />
            <mxPoint x="330" y="350" as="targetPoint" />
          </mxGeometry>
        </mxCell>
        <mxCell id="88W-80z6NXVtviiwKCgK-40" value="" style="shape=partialRectangle;fillColor=none;align=left;verticalAlign=middle;strokeColor=none;spacingLeft=34;rotatable=0;points=[[0,0.5],[1,0.5]];portConstraint=eastwest;dropTarget=0;" parent="1" vertex="1">
          <mxGeometry x="225" y="120" width="90" height="40" as="geometry" />
        </mxCell>
        <mxCell id="88W-80z6NXVtviiwKCgK-41" value="" style="shape=partialRectangle;top=0;left=0;bottom=0;fillColor=none;stokeWidth=1;dashed=1;align=left;verticalAlign=middle;spacingLeft=4;spacingRight=4;overflow=hidden;rotatable=0;points=[];portConstraint=eastwest;part=1;" parent="88W-80z6NXVtviiwKCgK-40" vertex="1" connectable="0">
          <mxGeometry width="30" height="40" as="geometry" />
        </mxCell>
        <mxCell id="88W-80z6NXVtviiwKCgK-42" style="edgeStyle=orthogonalEdgeStyle;rounded=0;orthogonalLoop=1;jettySize=auto;html=1;exitX=1;exitY=0.5;exitDx=0;exitDy=0;" parent="1" source="88W-80z6NXVtviiwKCgK-40" target="88W-80z6NXVtviiwKCgK-40" edge="1">
          <mxGeometry relative="1" as="geometry" />
        </mxCell>
        <mxCell id="88W-80z6NXVtviiwKCgK-45" value="" style="shape=partialRectangle;fillColor=none;align=left;verticalAlign=middle;strokeColor=none;spacingLeft=34;rotatable=0;points=[[0,0.5],[1,0.5]];portConstraint=eastwest;dropTarget=0;" parent="1" vertex="1">
          <mxGeometry x="565" y="120" width="90" height="40" as="geometry" />
        </mxCell>
        <mxCell id="88W-80z6NXVtviiwKCgK-46" value="" style="shape=partialRectangle;top=0;left=0;bottom=0;fillColor=none;stokeWidth=1;dashed=1;align=left;verticalAlign=middle;spacingLeft=4;spacingRight=4;overflow=hidden;rotatable=0;points=[];portConstraint=eastwest;part=1;" parent="88W-80z6NXVtviiwKCgK-45" vertex="1" connectable="0">
          <mxGeometry width="30" height="40" as="geometry" />
        </mxCell>
        <mxCell id="88W-80z6NXVtviiwKCgK-47" value="" style="shape=partialRectangle;fillColor=none;align=left;verticalAlign=middle;strokeColor=none;spacingLeft=34;rotatable=0;points=[[0,0.5],[1,0.5]];portConstraint=eastwest;dropTarget=0;" parent="1" vertex="1">
          <mxGeometry x="386" y="108" width="90" height="49" as="geometry" />
        </mxCell>
        <mxCell id="88W-80z6NXVtviiwKCgK-48" value="" style="shape=partialRectangle;top=0;left=0;bottom=0;fillColor=none;stokeWidth=1;dashed=1;align=left;verticalAlign=middle;spacingLeft=4;spacingRight=4;overflow=hidden;rotatable=0;points=[];portConstraint=eastwest;part=1;" parent="88W-80z6NXVtviiwKCgK-47" vertex="1" connectable="0">
          <mxGeometry width="30" height="49" as="geometry" />
        </mxCell>
        <mxCell id="88W-80z6NXVtviiwKCgK-49" value="" style="shape=partialRectangle;fillColor=none;align=left;verticalAlign=middle;strokeColor=none;spacingLeft=34;rotatable=0;points=[[0,0.5],[1,0.5]];portConstraint=eastwest;dropTarget=0;" parent="1" vertex="1">
          <mxGeometry x="225" y="360" width="90" height="30" as="geometry" />
        </mxCell>
        <mxCell id="88W-80z6NXVtviiwKCgK-50" value="" style="shape=partialRectangle;top=0;left=0;bottom=0;fillColor=none;stokeWidth=1;dashed=1;align=left;verticalAlign=middle;spacingLeft=4;spacingRight=4;overflow=hidden;rotatable=0;points=[];portConstraint=eastwest;part=1;" parent="88W-80z6NXVtviiwKCgK-49" vertex="1" connectable="0">
          <mxGeometry width="30" height="30" as="geometry" />
        </mxCell>
        <mxCell id="88W-80z6NXVtviiwKCgK-51" value="" style="shape=partialRectangle;fillColor=none;align=left;verticalAlign=middle;strokeColor=none;spacingLeft=34;rotatable=0;points=[[0,0.5],[1,0.5]];portConstraint=eastwest;dropTarget=0;" parent="1" vertex="1">
          <mxGeometry x="386" y="360" width="90" height="30" as="geometry" />
        </mxCell>
        <mxCell id="88W-80z6NXVtviiwKCgK-52" value="" style="shape=partialRectangle;top=0;left=0;bottom=0;fillColor=none;stokeWidth=1;dashed=1;align=left;verticalAlign=middle;spacingLeft=4;spacingRight=4;overflow=hidden;rotatable=0;points=[];portConstraint=eastwest;part=1;" parent="88W-80z6NXVtviiwKCgK-51" vertex="1" connectable="0">
          <mxGeometry width="30" height="30" as="geometry" />
        </mxCell>
        <mxCell id="88W-80z6NXVtviiwKCgK-53" value="" style="shape=partialRectangle;fillColor=none;align=left;verticalAlign=middle;strokeColor=none;spacingLeft=34;rotatable=0;points=[[0,0.5],[1,0.5]];portConstraint=eastwest;dropTarget=0;" parent="1" vertex="1">
          <mxGeometry x="565" y="350" width="90" height="40" as="geometry" />
        </mxCell>
        <mxCell id="88W-80z6NXVtviiwKCgK-54" value="" style="shape=partialRectangle;top=0;left=0;bottom=0;fillColor=none;stokeWidth=1;dashed=1;align=left;verticalAlign=middle;spacingLeft=4;spacingRight=4;overflow=hidden;rotatable=0;points=[];portConstraint=eastwest;part=1;" parent="88W-80z6NXVtviiwKCgK-53" vertex="1" connectable="0">
          <mxGeometry width="30" height="40" as="geometry" />
        </mxCell>
        <mxCell id="88W-80z6NXVtviiwKCgK-55" value="" style="shape=partialRectangle;fillColor=none;align=left;verticalAlign=middle;strokeColor=none;spacingLeft=34;rotatable=0;points=[[0,0.5],[1,0.5]];portConstraint=eastwest;dropTarget=0;" parent="1" vertex="1">
          <mxGeometry x="225" y="240" width="90" height="20" as="geometry" />
        </mxCell>
        <mxCell id="88W-80z6NXVtviiwKCgK-56" value="" style="shape=partialRectangle;top=0;left=0;bottom=0;fillColor=none;stokeWidth=1;dashed=1;align=left;verticalAlign=middle;spacingLeft=4;spacingRight=4;overflow=hidden;rotatable=0;points=[];portConstraint=eastwest;part=1;" parent="88W-80z6NXVtviiwKCgK-55" vertex="1" connectable="0">
          <mxGeometry width="30" height="20" as="geometry" />
        </mxCell>
        <mxCell id="88W-80z6NXVtviiwKCgK-57" value="" style="shape=partialRectangle;fillColor=none;align=left;verticalAlign=middle;strokeColor=none;spacingLeft=34;rotatable=0;points=[[0,0.5],[1,0.5]];portConstraint=eastwest;dropTarget=0;" parent="1" vertex="1">
          <mxGeometry x="386" y="240" width="90" height="20" as="geometry" />
        </mxCell>
        <mxCell id="88W-80z6NXVtviiwKCgK-58" value="" style="shape=partialRectangle;top=0;left=0;bottom=0;fillColor=none;stokeWidth=1;dashed=1;align=left;verticalAlign=middle;spacingLeft=4;spacingRight=4;overflow=hidden;rotatable=0;points=[];portConstraint=eastwest;part=1;" parent="88W-80z6NXVtviiwKCgK-57" vertex="1" connectable="0">
          <mxGeometry width="30" height="20" as="geometry" />
        </mxCell>
        <mxCell id="88W-80z6NXVtviiwKCgK-59" value="" style="shape=partialRectangle;fillColor=none;align=left;verticalAlign=middle;strokeColor=none;spacingLeft=34;rotatable=0;points=[[0,0.5],[1,0.5]];portConstraint=eastwest;dropTarget=0;" parent="1" vertex="1">
          <mxGeometry x="565" y="240" width="90" height="30" as="geometry" />
        </mxCell>
        <mxCell id="88W-80z6NXVtviiwKCgK-60" value="" style="shape=partialRectangle;top=0;left=0;bottom=0;fillColor=none;stokeWidth=1;dashed=1;align=left;verticalAlign=middle;spacingLeft=4;spacingRight=4;overflow=hidden;rotatable=0;points=[];portConstraint=eastwest;part=1;" parent="88W-80z6NXVtviiwKCgK-59" vertex="1" connectable="0">
          <mxGeometry width="30" height="30" as="geometry" />
        </mxCell>
        <mxCell id="88W-80z6NXVtviiwKCgK-61" value="User" style="shape=umlActor;verticalLabelPosition=bottom;verticalAlign=top;html=1;" parent="1" vertex="1">
          <mxGeometry x="250" y="532" width="30" height="60" as="geometry" />
        </mxCell>
        <mxCell id="88W-80z6NXVtviiwKCgK-62" value="" style="html=1;points=[[0,0,0,0,5],[0,1,0,0,-5],[1,0,0,0,5],[1,1,0,0,-5]];perimeter=orthogonalPerimeter;outlineConnect=0;targetShapes=umlLifeline;portConstraint=eastwest;newEdgeStyle={&quot;curved&quot;:0,&quot;rounded&quot;:0};" parent="1" vertex="1">
          <mxGeometry x="260" y="652" width="10" height="80" as="geometry" />
        </mxCell>
        <mxCell id="88W-80z6NXVtviiwKCgK-63" value="" style="endArrow=block;endFill=1;html=1;edgeStyle=orthogonalEdgeStyle;align=left;verticalAlign=top;rounded=0;" parent="1" edge="1">
          <mxGeometry x="-1" relative="1" as="geometry">
            <mxPoint x="271" y="682" as="sourcePoint" />
            <mxPoint x="420" y="682" as="targetPoint" />
          </mxGeometry>
        </mxCell>
        <mxCell id="88W-80z6NXVtviiwKCgK-64" value="&amp;nbsp; &amp;nbsp;1. 메일 쓰기 선택" style="edgeLabel;resizable=0;html=1;align=left;verticalAlign=bottom;" parent="88W-80z6NXVtviiwKCgK-63" connectable="0" vertex="1">
          <mxGeometry x="-1" relative="1" as="geometry" />
        </mxCell>
        <mxCell id="88W-80z6NXVtviiwKCgK-65" value="" style="html=1;points=[[0,0,0,0,5],[0,1,0,0,-5],[1,0,0,0,5],[1,1,0,0,-5]];perimeter=orthogonalPerimeter;outlineConnect=0;targetShapes=umlLifeline;portConstraint=eastwest;newEdgeStyle={&quot;curved&quot;:0,&quot;rounded&quot;:0};" parent="1" vertex="1">
          <mxGeometry x="422" y="652" width="10" height="80" as="geometry" />
        </mxCell>
        <mxCell id="88W-80z6NXVtviiwKCgK-66" value="" style="html=1;points=[[0,0,0,0,5],[0,1,0,0,-5],[1,0,0,0,5],[1,1,0,0,-5]];perimeter=orthogonalPerimeter;outlineConnect=0;targetShapes=umlLifeline;portConstraint=eastwest;newEdgeStyle={&quot;curved&quot;:0,&quot;rounded&quot;:0};" parent="1" vertex="1">
          <mxGeometry x="427" y="665" width="10" height="50" as="geometry" />
        </mxCell>
        <mxCell id="88W-80z6NXVtviiwKCgK-67" value=":System" style="html=1;whiteSpace=wrap;" parent="1" vertex="1">
          <mxGeometry x="372" y="547" width="110" height="50" as="geometry" />
        </mxCell>
        <mxCell id="88W-80z6NXVtviiwKCgK-68" value="DBServer" style="shape=umlActor;verticalLabelPosition=bottom;verticalAlign=top;html=1;" parent="1" vertex="1">
          <mxGeometry x="590" y="532" width="30" height="60" as="geometry" />
        </mxCell>
        <mxCell id="88W-80z6NXVtviiwKCgK-69" value="" style="html=1;points=[[0,0,0,0,5],[0,1,0,0,-5],[1,0,0,0,5],[1,1,0,0,-5]];perimeter=orthogonalPerimeter;outlineConnect=0;targetShapes=umlLifeline;portConstraint=eastwest;newEdgeStyle={&quot;curved&quot;:0,&quot;rounded&quot;:0};" parent="1" vertex="1">
          <mxGeometry x="600" y="652" width="10" height="80" as="geometry" />
        </mxCell>
        <mxCell id="88W-80z6NXVtviiwKCgK-70" value="" style="endArrow=block;endFill=1;html=1;edgeStyle=orthogonalEdgeStyle;align=left;verticalAlign=top;rounded=0;entryX=0;entryY=0.644;entryDx=0;entryDy=0;entryPerimeter=0;" parent="1" target="88W-80z6NXVtviiwKCgK-69" edge="1">
          <mxGeometry x="-1" relative="1" as="geometry">
            <mxPoint x="438" y="703.5" as="sourcePoint" />
            <mxPoint x="570" y="703.5" as="targetPoint" />
          </mxGeometry>
        </mxCell>
        <mxCell id="88W-80z6NXVtviiwKCgK-71" value="&amp;nbsp; &amp;nbsp;2. 보낸 메일 저장" style="edgeLabel;resizable=0;html=1;align=left;verticalAlign=bottom;" parent="88W-80z6NXVtviiwKCgK-70" connectable="0" vertex="1">
          <mxGeometry x="-1" relative="1" as="geometry" />
        </mxCell>
        <mxCell id="88W-80z6NXVtviiwKCgK-72" value="" style="html=1;points=[[0,0,0,0,5],[0,1,0,0,-5],[1,0,0,0,5],[1,1,0,0,-5]];perimeter=orthogonalPerimeter;outlineConnect=0;targetShapes=umlLifeline;portConstraint=eastwest;newEdgeStyle={&quot;curved&quot;:0,&quot;rounded&quot;:0};" parent="1" vertex="1">
          <mxGeometry x="260" y="752" width="10" height="100" as="geometry" />
        </mxCell>
        <mxCell id="88W-80z6NXVtviiwKCgK-73" value="" style="html=1;points=[[0,0,0,0,5],[0,1,0,0,-5],[1,0,0,0,5],[1,1,0,0,-5]];perimeter=orthogonalPerimeter;outlineConnect=0;targetShapes=umlLifeline;portConstraint=eastwest;newEdgeStyle={&quot;curved&quot;:0,&quot;rounded&quot;:0};" parent="1" vertex="1">
          <mxGeometry x="422" y="752" width="10" height="100" as="geometry" />
        </mxCell>
        <mxCell id="88W-80z6NXVtviiwKCgK-74" value="" style="html=1;points=[[0,0,0,0,5],[0,1,0,0,-5],[1,0,0,0,5],[1,1,0,0,-5]];perimeter=orthogonalPerimeter;outlineConnect=0;targetShapes=umlLifeline;portConstraint=eastwest;newEdgeStyle={&quot;curved&quot;:0,&quot;rounded&quot;:0};" parent="1" vertex="1">
          <mxGeometry x="427" y="767" width="10" height="70" as="geometry" />
        </mxCell>
        <mxCell id="88W-80z6NXVtviiwKCgK-75" value="" style="html=1;points=[[0,0,0,0,5],[0,1,0,0,-5],[1,0,0,0,5],[1,1,0,0,-5]];perimeter=orthogonalPerimeter;outlineConnect=0;targetShapes=umlLifeline;portConstraint=eastwest;newEdgeStyle={&quot;curved&quot;:0,&quot;rounded&quot;:0};" parent="1" vertex="1">
          <mxGeometry x="600" y="762" width="10" height="80" as="geometry" />
        </mxCell>
        <mxCell id="88W-80z6NXVtviiwKCgK-76" value="" style="endArrow=block;endFill=1;html=1;edgeStyle=orthogonalEdgeStyle;align=left;verticalAlign=top;rounded=0;" parent="1" edge="1">
          <mxGeometry x="-1" relative="1" as="geometry">
            <mxPoint x="271" y="782" as="sourcePoint" />
            <mxPoint x="420" y="782" as="targetPoint" />
          </mxGeometry>
        </mxCell>
        <mxCell id="88W-80z6NXVtviiwKCgK-77" value="&amp;nbsp;3. 발신 메일 목록 선택" style="edgeLabel;resizable=0;html=1;align=left;verticalAlign=bottom;" parent="88W-80z6NXVtviiwKCgK-76" connectable="0" vertex="1">
          <mxGeometry x="-1" relative="1" as="geometry" />
        </mxCell>
        <mxCell id="88W-80z6NXVtviiwKCgK-78" value="" style="endArrow=block;endFill=1;html=1;edgeStyle=orthogonalEdgeStyle;align=left;verticalAlign=top;rounded=0;entryX=0;entryY=0.4;entryDx=0;entryDy=0;entryPerimeter=0;" parent="1" target="88W-80z6NXVtviiwKCgK-75" edge="1">
          <mxGeometry x="-1" relative="1" as="geometry">
            <mxPoint x="437" y="792" as="sourcePoint" />
            <mxPoint x="569" y="792" as="targetPoint" />
            <Array as="points">
              <mxPoint x="437" y="793" />
              <mxPoint x="600" y="793" />
            </Array>
          </mxGeometry>
        </mxCell>
        <mxCell id="88W-80z6NXVtviiwKCgK-79" value="&amp;nbsp; &amp;nbsp;4. 내가 보낸 메일 목록 검색" style="edgeLabel;resizable=0;html=1;align=left;verticalAlign=bottom;" parent="88W-80z6NXVtviiwKCgK-78" connectable="0" vertex="1">
          <mxGeometry x="-1" relative="1" as="geometry" />
        </mxCell>
        <mxCell id="88W-80z6NXVtviiwKCgK-80" value="5. 리스트 제공" style="html=1;verticalAlign=bottom;endArrow=open;dashed=1;endSize=8;curved=0;rounded=0;" parent="1" target="88W-80z6NXVtviiwKCgK-74" edge="1">
          <mxGeometry relative="1" as="geometry">
            <mxPoint x="600" y="822" as="sourcePoint" />
            <mxPoint x="520" y="822" as="targetPoint" />
          </mxGeometry>
        </mxCell>
        <mxCell id="88W-80z6NXVtviiwKCgK-81" value="6. 내가 보낸 메일 목록 출력" style="html=1;verticalAlign=bottom;endArrow=open;dashed=1;endSize=8;curved=0;rounded=0;" parent="1" target="88W-80z6NXVtviiwKCgK-72" edge="1">
          <mxGeometry relative="1" as="geometry">
            <mxPoint x="420" y="842" as="sourcePoint" />
            <mxPoint x="340" y="842" as="targetPoint" />
          </mxGeometry>
        </mxCell>
        <mxCell id="88W-80z6NXVtviiwKCgK-82" value="" style="shape=partialRectangle;fillColor=none;align=left;verticalAlign=middle;strokeColor=none;spacingLeft=34;rotatable=0;points=[[0,0.5],[1,0.5]];portConstraint=eastwest;dropTarget=0;" parent="1" vertex="1">
          <mxGeometry x="235" y="612" width="90" height="40" as="geometry" />
        </mxCell>
        <mxCell id="88W-80z6NXVtviiwKCgK-83" value="" style="shape=partialRectangle;top=0;left=0;bottom=0;fillColor=none;stokeWidth=1;dashed=1;align=left;verticalAlign=middle;spacingLeft=4;spacingRight=4;overflow=hidden;rotatable=0;points=[];portConstraint=eastwest;part=1;" parent="88W-80z6NXVtviiwKCgK-82" vertex="1" connectable="0">
          <mxGeometry width="30" height="40" as="geometry" />
        </mxCell>
        <mxCell id="88W-80z6NXVtviiwKCgK-84" style="edgeStyle=orthogonalEdgeStyle;rounded=0;orthogonalLoop=1;jettySize=auto;html=1;exitX=1;exitY=0.5;exitDx=0;exitDy=0;" parent="1" source="88W-80z6NXVtviiwKCgK-82" target="88W-80z6NXVtviiwKCgK-82" edge="1">
          <mxGeometry relative="1" as="geometry" />
        </mxCell>
        <mxCell id="88W-80z6NXVtviiwKCgK-85" value="" style="shape=partialRectangle;fillColor=none;align=left;verticalAlign=middle;strokeColor=none;spacingLeft=34;rotatable=0;points=[[0,0.5],[1,0.5]];portConstraint=eastwest;dropTarget=0;" parent="1" vertex="1">
          <mxGeometry x="575" y="612" width="90" height="40" as="geometry" />
        </mxCell>
        <mxCell id="88W-80z6NXVtviiwKCgK-86" value="" style="shape=partialRectangle;top=0;left=0;bottom=0;fillColor=none;stokeWidth=1;dashed=1;align=left;verticalAlign=middle;spacingLeft=4;spacingRight=4;overflow=hidden;rotatable=0;points=[];portConstraint=eastwest;part=1;" parent="88W-80z6NXVtviiwKCgK-85" vertex="1" connectable="0">
          <mxGeometry width="30" height="40" as="geometry" />
        </mxCell>
        <mxCell id="88W-80z6NXVtviiwKCgK-87" value="" style="shape=partialRectangle;fillColor=none;align=left;verticalAlign=middle;strokeColor=none;spacingLeft=34;rotatable=0;points=[[0,0.5],[1,0.5]];portConstraint=eastwest;dropTarget=0;" parent="1" vertex="1">
          <mxGeometry x="396" y="600" width="90" height="49" as="geometry" />
        </mxCell>
        <mxCell id="88W-80z6NXVtviiwKCgK-88" value="" style="shape=partialRectangle;top=0;left=0;bottom=0;fillColor=none;stokeWidth=1;dashed=1;align=left;verticalAlign=middle;spacingLeft=4;spacingRight=4;overflow=hidden;rotatable=0;points=[];portConstraint=eastwest;part=1;" parent="88W-80z6NXVtviiwKCgK-87" vertex="1" connectable="0">
          <mxGeometry width="30" height="49" as="geometry" />
        </mxCell>
        <mxCell id="88W-80z6NXVtviiwKCgK-89" value="" style="shape=partialRectangle;fillColor=none;align=left;verticalAlign=middle;strokeColor=none;spacingLeft=34;rotatable=0;points=[[0,0.5],[1,0.5]];portConstraint=eastwest;dropTarget=0;" parent="1" vertex="1">
          <mxGeometry x="235" y="852" width="90" height="30" as="geometry" />
        </mxCell>
        <mxCell id="88W-80z6NXVtviiwKCgK-90" value="" style="shape=partialRectangle;top=0;left=0;bottom=0;fillColor=none;stokeWidth=1;dashed=1;align=left;verticalAlign=middle;spacingLeft=4;spacingRight=4;overflow=hidden;rotatable=0;points=[];portConstraint=eastwest;part=1;" parent="88W-80z6NXVtviiwKCgK-89" vertex="1" connectable="0">
          <mxGeometry width="30" height="30" as="geometry" />
        </mxCell>
        <mxCell id="88W-80z6NXVtviiwKCgK-91" value="" style="shape=partialRectangle;fillColor=none;align=left;verticalAlign=middle;strokeColor=none;spacingLeft=34;rotatable=0;points=[[0,0.5],[1,0.5]];portConstraint=eastwest;dropTarget=0;" parent="1" vertex="1">
          <mxGeometry x="396" y="852" width="90" height="30" as="geometry" />
        </mxCell>
        <mxCell id="88W-80z6NXVtviiwKCgK-92" value="" style="shape=partialRectangle;top=0;left=0;bottom=0;fillColor=none;stokeWidth=1;dashed=1;align=left;verticalAlign=middle;spacingLeft=4;spacingRight=4;overflow=hidden;rotatable=0;points=[];portConstraint=eastwest;part=1;" parent="88W-80z6NXVtviiwKCgK-91" vertex="1" connectable="0">
          <mxGeometry width="30" height="30" as="geometry" />
        </mxCell>
        <mxCell id="88W-80z6NXVtviiwKCgK-93" value="" style="shape=partialRectangle;fillColor=none;align=left;verticalAlign=middle;strokeColor=none;spacingLeft=34;rotatable=0;points=[[0,0.5],[1,0.5]];portConstraint=eastwest;dropTarget=0;" parent="1" vertex="1">
          <mxGeometry x="575" y="842" width="90" height="40" as="geometry" />
        </mxCell>
        <mxCell id="88W-80z6NXVtviiwKCgK-94" value="" style="shape=partialRectangle;top=0;left=0;bottom=0;fillColor=none;stokeWidth=1;dashed=1;align=left;verticalAlign=middle;spacingLeft=4;spacingRight=4;overflow=hidden;rotatable=0;points=[];portConstraint=eastwest;part=1;" parent="88W-80z6NXVtviiwKCgK-93" vertex="1" connectable="0">
          <mxGeometry width="30" height="40" as="geometry" />
        </mxCell>
        <mxCell id="88W-80z6NXVtviiwKCgK-95" value="" style="shape=partialRectangle;fillColor=none;align=left;verticalAlign=middle;strokeColor=none;spacingLeft=34;rotatable=0;points=[[0,0.5],[1,0.5]];portConstraint=eastwest;dropTarget=0;" parent="1" vertex="1">
          <mxGeometry x="235" y="732" width="90" height="20" as="geometry" />
        </mxCell>
        <mxCell id="88W-80z6NXVtviiwKCgK-96" value="" style="shape=partialRectangle;top=0;left=0;bottom=0;fillColor=none;stokeWidth=1;dashed=1;align=left;verticalAlign=middle;spacingLeft=4;spacingRight=4;overflow=hidden;rotatable=0;points=[];portConstraint=eastwest;part=1;" parent="88W-80z6NXVtviiwKCgK-95" vertex="1" connectable="0">
          <mxGeometry width="30" height="20" as="geometry" />
        </mxCell>
        <mxCell id="88W-80z6NXVtviiwKCgK-97" value="" style="shape=partialRectangle;fillColor=none;align=left;verticalAlign=middle;strokeColor=none;spacingLeft=34;rotatable=0;points=[[0,0.5],[1,0.5]];portConstraint=eastwest;dropTarget=0;" parent="1" vertex="1">
          <mxGeometry x="396" y="732" width="90" height="20" as="geometry" />
        </mxCell>
        <mxCell id="88W-80z6NXVtviiwKCgK-98" value="" style="shape=partialRectangle;top=0;left=0;bottom=0;fillColor=none;stokeWidth=1;dashed=1;align=left;verticalAlign=middle;spacingLeft=4;spacingRight=4;overflow=hidden;rotatable=0;points=[];portConstraint=eastwest;part=1;" parent="88W-80z6NXVtviiwKCgK-97" vertex="1" connectable="0">
          <mxGeometry width="30" height="20" as="geometry" />
        </mxCell>
        <mxCell id="88W-80z6NXVtviiwKCgK-99" value="" style="shape=partialRectangle;fillColor=none;align=left;verticalAlign=middle;strokeColor=none;spacingLeft=34;rotatable=0;points=[[0,0.5],[1,0.5]];portConstraint=eastwest;dropTarget=0;" parent="1" vertex="1">
          <mxGeometry x="575" y="732" width="90" height="30" as="geometry" />
        </mxCell>
        <mxCell id="88W-80z6NXVtviiwKCgK-100" value="" style="shape=partialRectangle;top=0;left=0;bottom=0;fillColor=none;stokeWidth=1;dashed=1;align=left;verticalAlign=middle;spacingLeft=4;spacingRight=4;overflow=hidden;rotatable=0;points=[];portConstraint=eastwest;part=1;" parent="88W-80z6NXVtviiwKCgK-99" vertex="1" connectable="0">
          <mxGeometry width="30" height="30" as="geometry" />
        </mxCell>
        <mxCell id="88W-80z6NXVtviiwKCgK-102" value="&amp;lt;&amp;lt;actor&amp;gt;&amp;gt;&lt;div&gt;User&lt;/div&gt;" style="swimlane;fontStyle=0;childLayout=stackLayout;horizontal=1;startSize=26;fillColor=none;horizontalStack=0;resizeParent=1;resizeParentMax=0;resizeLast=0;collapsible=1;marginBottom=0;whiteSpace=wrap;html=1;" parent="1" vertex="1">
          <mxGeometry x="222" y="1080" width="140" height="78" as="geometry" />
        </mxCell>
        <mxCell id="88W-80z6NXVtviiwKCgK-103" value="userid" style="text;strokeColor=none;fillColor=none;align=left;verticalAlign=top;spacingLeft=4;spacingRight=4;overflow=hidden;rotatable=0;points=[[0,0.5],[1,0.5]];portConstraint=eastwest;whiteSpace=wrap;html=1;" parent="88W-80z6NXVtviiwKCgK-102" vertex="1">
          <mxGeometry y="26" width="140" height="26" as="geometry" />
        </mxCell>
        <mxCell id="88W-80z6NXVtviiwKCgK-104" value="password" style="text;strokeColor=none;fillColor=none;align=left;verticalAlign=top;spacingLeft=4;spacingRight=4;overflow=hidden;rotatable=0;points=[[0,0.5],[1,0.5]];portConstraint=eastwest;whiteSpace=wrap;html=1;" parent="88W-80z6NXVtviiwKCgK-102" vertex="1">
          <mxGeometry y="52" width="140" height="26" as="geometry" />
        </mxCell>
        <mxCell id="88W-80z6NXVtviiwKCgK-110" value="SendMeList" style="swimlane;fontStyle=0;childLayout=stackLayout;horizontal=1;startSize=26;fillColor=none;horizontalStack=0;resizeParent=1;resizeParentMax=0;resizeLast=0;collapsible=1;marginBottom=0;whiteSpace=wrap;html=1;" parent="1" vertex="1">
          <mxGeometry x="389" y="1093" width="140" height="52" as="geometry" />
        </mxCell>
        <mxCell id="88W-80z6NXVtviiwKCgK-117" value="&amp;lt;&amp;lt;actor&amp;gt;&amp;gt;&lt;div&gt;MailServer&lt;/div&gt;" style="swimlane;fontStyle=0;childLayout=stackLayout;horizontal=1;startSize=26;fillColor=none;horizontalStack=0;resizeParent=1;resizeParentMax=0;resizeLast=0;collapsible=1;marginBottom=0;whiteSpace=wrap;html=1;" parent="1" vertex="1">
          <mxGeometry x="556" y="1093" width="140" height="52" as="geometry" />
        </mxCell>
        <mxCell id="88W-80z6NXVtviiwKCgK-118" value="messages" style="text;strokeColor=none;fillColor=none;align=left;verticalAlign=top;spacingLeft=4;spacingRight=4;overflow=hidden;rotatable=0;points=[[0,0.5],[1,0.5]];portConstraint=eastwest;whiteSpace=wrap;html=1;" parent="88W-80z6NXVtviiwKCgK-117" vertex="1">
          <mxGeometry y="26" width="140" height="26" as="geometry" />
        </mxCell>
        <mxCell id="88W-80z6NXVtviiwKCgK-124" value="" style="line;strokeWidth=1;fillColor=none;align=left;verticalAlign=middle;spacingTop=-1;spacingLeft=3;spacingRight=3;rotatable=0;labelPosition=right;points=[];portConstraint=eastwest;strokeColor=inherit;" parent="1" vertex="1">
          <mxGeometry x="362" y="1124" width="27" height="8" as="geometry" />
        </mxCell>
        <mxCell id="88W-80z6NXVtviiwKCgK-125" value="" style="line;strokeWidth=1;fillColor=none;align=left;verticalAlign=middle;spacingTop=-1;spacingLeft=3;spacingRight=3;rotatable=0;labelPosition=right;points=[];portConstraint=eastwest;strokeColor=inherit;" parent="1" vertex="1">
          <mxGeometry x="529" y="1124" width="27" height="8" as="geometry" />
        </mxCell>
        <mxCell id="88W-80z6NXVtviiwKCgK-126" value="&amp;lt;&amp;lt;actor&amp;gt;&amp;gt;&lt;div&gt;User&lt;/div&gt;" style="swimlane;fontStyle=0;childLayout=stackLayout;horizontal=1;startSize=26;fillColor=none;horizontalStack=0;resizeParent=1;resizeParentMax=0;resizeLast=0;collapsible=1;marginBottom=0;whiteSpace=wrap;html=1;" parent="1" vertex="1">
          <mxGeometry x="219" y="1275" width="140" height="78" as="geometry" />
        </mxCell>
        <mxCell id="88W-80z6NXVtviiwKCgK-127" value="userid" style="text;strokeColor=none;fillColor=none;align=left;verticalAlign=top;spacingLeft=4;spacingRight=4;overflow=hidden;rotatable=0;points=[[0,0.5],[1,0.5]];portConstraint=eastwest;whiteSpace=wrap;html=1;" parent="88W-80z6NXVtviiwKCgK-126" vertex="1">
          <mxGeometry y="26" width="140" height="26" as="geometry" />
        </mxCell>
        <mxCell id="88W-80z6NXVtviiwKCgK-128" value="password" style="text;strokeColor=none;fillColor=none;align=left;verticalAlign=top;spacingLeft=4;spacingRight=4;overflow=hidden;rotatable=0;points=[[0,0.5],[1,0.5]];portConstraint=eastwest;whiteSpace=wrap;html=1;" parent="88W-80z6NXVtviiwKCgK-126" vertex="1">
          <mxGeometry y="52" width="140" height="26" as="geometry" />
        </mxCell>
        <mxCell id="88W-80z6NXVtviiwKCgK-129" value="SentEmailService" style="swimlane;fontStyle=0;childLayout=stackLayout;horizontal=1;startSize=26;fillColor=none;horizontalStack=0;resizeParent=1;resizeParentMax=0;resizeLast=0;collapsible=1;marginBottom=0;whiteSpace=wrap;html=1;" parent="1" vertex="1">
          <mxGeometry x="386" y="1288" width="140" height="52" as="geometry" />
        </mxCell>
        <mxCell id="88W-80z6NXVtviiwKCgK-130" value="&amp;lt;&amp;lt;actor&amp;gt;&amp;gt;&lt;div&gt;DBServer&lt;/div&gt;" style="swimlane;fontStyle=0;childLayout=stackLayout;horizontal=1;startSize=26;fillColor=none;horizontalStack=0;resizeParent=1;resizeParentMax=0;resizeLast=0;collapsible=1;marginBottom=0;whiteSpace=wrap;html=1;" parent="1" vertex="1">
          <mxGeometry x="553" y="1288" width="140" height="52" as="geometry" />
        </mxCell>
        <mxCell id="88W-80z6NXVtviiwKCgK-131" value="messages" style="text;strokeColor=none;fillColor=none;align=left;verticalAlign=top;spacingLeft=4;spacingRight=4;overflow=hidden;rotatable=0;points=[[0,0.5],[1,0.5]];portConstraint=eastwest;whiteSpace=wrap;html=1;" parent="88W-80z6NXVtviiwKCgK-130" vertex="1">
          <mxGeometry y="26" width="140" height="26" as="geometry" />
        </mxCell>
        <mxCell id="88W-80z6NXVtviiwKCgK-133" value="" style="line;strokeWidth=1;fillColor=none;align=left;verticalAlign=middle;spacingTop=-1;spacingLeft=3;spacingRight=3;rotatable=0;labelPosition=right;points=[];portConstraint=eastwest;strokeColor=inherit;" parent="1" vertex="1">
          <mxGeometry x="359" y="1319" width="27" height="8" as="geometry" />
        </mxCell>
        <mxCell id="88W-80z6NXVtviiwKCgK-134" value="" style="line;strokeWidth=1;fillColor=none;align=left;verticalAlign=middle;spacingTop=-1;spacingLeft=3;spacingRight=3;rotatable=0;labelPosition=right;points=[];portConstraint=eastwest;strokeColor=inherit;" parent="1" vertex="1">
          <mxGeometry x="526" y="1319" width="27" height="8" as="geometry" />
        </mxCell>
        <mxCell id="88W-80z6NXVtviiwKCgK-135" value=":User" style="html=1;whiteSpace=wrap;" parent="1" vertex="1">
          <mxGeometry x="200" y="1760" width="110" height="50" as="geometry" />
        </mxCell>
        <mxCell id="88W-80z6NXVtviiwKCgK-136" value=":Pop3Agent" style="html=1;whiteSpace=wrap;" parent="1" vertex="1">
          <mxGeometry x="440" y="1760" width="110" height="50" as="geometry" />
        </mxCell>
        <mxCell id="88W-80z6NXVtviiwKCgK-137" value=":MailServer" style="html=1;whiteSpace=wrap;" parent="1" vertex="1">
          <mxGeometry x="680" y="1760" width="110" height="50" as="geometry" />
        </mxCell>
        <mxCell id="88W-80z6NXVtviiwKCgK-139" value="" style="line;strokeWidth=1;fillColor=none;align=left;verticalAlign=middle;spacingTop=-1;spacingLeft=3;spacingRight=3;rotatable=0;labelPosition=right;points=[];portConstraint=eastwest;strokeColor=inherit;" parent="1" vertex="1">
          <mxGeometry x="310" y="1781" width="130" height="8" as="geometry" />
        </mxCell>
        <mxCell id="88W-80z6NXVtviiwKCgK-140" value="" style="line;strokeWidth=1;fillColor=none;align=left;verticalAlign=middle;spacingTop=-1;spacingLeft=3;spacingRight=3;rotatable=0;labelPosition=right;points=[];portConstraint=eastwest;strokeColor=inherit;" parent="1" vertex="1">
          <mxGeometry x="550" y="1781" width="130" height="8" as="geometry" />
        </mxCell>
        <mxCell id="88W-80z6NXVtviiwKCgK-143" value="" style="endArrow=open;endFill=1;endSize=12;html=1;rounded=0;" parent="1" edge="1">
          <mxGeometry width="160" relative="1" as="geometry">
            <mxPoint x="322" y="1770" as="sourcePoint" />
            <mxPoint x="422" y="1770" as="targetPoint" />
          </mxGeometry>
        </mxCell>
        <mxCell id="88W-80z6NXVtviiwKCgK-144" value="&lt;span style=&quot;color: rgb(0, 0, 0); font-family: Helvetica; font-size: 11px; font-style: normal; font-variant-ligatures: normal; font-variant-caps: normal; font-weight: 400; letter-spacing: normal; orphans: 2; text-align: left; text-indent: 0px; text-transform: none; widows: 2; word-spacing: 0px; -webkit-text-stroke-width: 0px; white-space: nowrap; background-color: rgb(255, 255, 255); text-decoration-thickness: initial; text-decoration-style: initial; text-decoration-color: initial; display: inline !important; float: none;&quot;&gt;1. 내게쓰기 메뉴 선택&lt;/span&gt;&lt;div style=&quot;forced-color-adjust: none; color: rgb(0, 0, 0); font-family: Helvetica; font-size: 11px; font-style: normal; font-variant-ligatures: normal; font-variant-caps: normal; font-weight: 400; letter-spacing: normal; orphans: 2; text-align: left; text-indent: 0px; text-transform: none; widows: 2; word-spacing: 0px; -webkit-text-stroke-width: 0px; white-space: nowrap; text-decoration-thickness: initial; text-decoration-style: initial; text-decoration-color: initial;&quot;&gt;3. 내게 보낸 메일 목록 선택&lt;/div&gt;" style="text;whiteSpace=wrap;html=1;" parent="1" vertex="1">
          <mxGeometry x="307" y="1722" width="152.5" height="40" as="geometry" />
        </mxCell>
        <mxCell id="88W-80z6NXVtviiwKCgK-145" value="" style="endArrow=open;endFill=1;endSize=12;html=1;rounded=0;" parent="1" edge="1">
          <mxGeometry width="160" relative="1" as="geometry">
            <mxPoint x="565" y="1770" as="sourcePoint" />
            <mxPoint x="665" y="1770" as="targetPoint" />
          </mxGeometry>
        </mxCell>
        <mxCell id="88W-80z6NXVtviiwKCgK-146" value="&lt;span style=&quot;font-size: 11px; text-wrap: nowrap; background-color: rgb(255, 255, 255);&quot;&gt;2. 내게 쓴 메일 저장&lt;/span&gt;&lt;div&gt;&lt;span style=&quot;font-size: 11px; text-wrap: nowrap; background-color: rgb(255, 255, 255);&quot;&gt;4. 내게 보낸 메일 목록 검색&lt;/span&gt;&lt;/div&gt;" style="text;whiteSpace=wrap;html=1;" parent="1" vertex="1">
          <mxGeometry x="546.75" y="1720" width="152.5" height="40" as="geometry" />
        </mxCell>
        <mxCell id="88W-80z6NXVtviiwKCgK-147" value="" style="endArrow=open;endFill=1;endSize=12;html=1;rounded=0;" parent="1" edge="1">
          <mxGeometry width="160" relative="1" as="geometry">
            <mxPoint x="422" y="1800" as="sourcePoint" />
            <mxPoint x="320" y="1800" as="targetPoint" />
          </mxGeometry>
        </mxCell>
        <mxCell id="88W-80z6NXVtviiwKCgK-148" value="&lt;span style=&quot;font-size: 11px; text-wrap: nowrap; background-color: rgb(255, 255, 255);&quot;&gt;6. 내게 보낸 메일 목록 출력&lt;/span&gt;" style="text;whiteSpace=wrap;html=1;" parent="1" vertex="1">
          <mxGeometry x="310" y="1810" width="140" height="30" as="geometry" />
        </mxCell>
        <mxCell id="88W-80z6NXVtviiwKCgK-149" value="" style="endArrow=open;endFill=1;endSize=12;html=1;rounded=0;" parent="1" edge="1">
          <mxGeometry width="160" relative="1" as="geometry">
            <mxPoint x="665" y="1800" as="sourcePoint" />
            <mxPoint x="563" y="1800" as="targetPoint" />
          </mxGeometry>
        </mxCell>
        <mxCell id="88W-80z6NXVtviiwKCgK-150" value="&lt;span style=&quot;font-size: 11px; text-wrap: nowrap; background-color: rgb(255, 255, 255);&quot;&gt;5. 리스트 제공&lt;/span&gt;" style="text;whiteSpace=wrap;html=1;" parent="1" vertex="1">
          <mxGeometry x="580" y="1808" width="77" height="20" as="geometry" />
        </mxCell>
        <mxCell id="88W-80z6NXVtviiwKCgK-151" value=":User" style="html=1;whiteSpace=wrap;" parent="1" vertex="1">
          <mxGeometry x="210" y="1980" width="110" height="50" as="geometry" />
        </mxCell>
        <mxCell id="88W-80z6NXVtviiwKCgK-152" value=":SentEmailService" style="html=1;whiteSpace=wrap;" parent="1" vertex="1">
          <mxGeometry x="450" y="1980" width="110" height="50" as="geometry" />
        </mxCell>
        <mxCell id="88W-80z6NXVtviiwKCgK-153" value=":DB" style="html=1;whiteSpace=wrap;" parent="1" vertex="1">
          <mxGeometry x="690" y="1980" width="110" height="50" as="geometry" />
        </mxCell>
        <mxCell id="88W-80z6NXVtviiwKCgK-154" value="" style="line;strokeWidth=1;fillColor=none;align=left;verticalAlign=middle;spacingTop=-1;spacingLeft=3;spacingRight=3;rotatable=0;labelPosition=right;points=[];portConstraint=eastwest;strokeColor=inherit;" parent="1" vertex="1">
          <mxGeometry x="320" y="2001" width="130" height="8" as="geometry" />
        </mxCell>
        <mxCell id="88W-80z6NXVtviiwKCgK-155" value="" style="line;strokeWidth=1;fillColor=none;align=left;verticalAlign=middle;spacingTop=-1;spacingLeft=3;spacingRight=3;rotatable=0;labelPosition=right;points=[];portConstraint=eastwest;strokeColor=inherit;" parent="1" vertex="1">
          <mxGeometry x="560" y="2001" width="130" height="8" as="geometry" />
        </mxCell>
        <mxCell id="88W-80z6NXVtviiwKCgK-156" value="" style="endArrow=open;endFill=1;endSize=12;html=1;rounded=0;" parent="1" edge="1">
          <mxGeometry width="160" relative="1" as="geometry">
            <mxPoint x="332" y="1990" as="sourcePoint" />
            <mxPoint x="432" y="1990" as="targetPoint" />
          </mxGeometry>
        </mxCell>
        <mxCell id="88W-80z6NXVtviiwKCgK-157" value="&lt;span style=&quot;color: rgb(0, 0, 0); font-family: Helvetica; font-size: 11px; font-style: normal; font-variant-ligatures: normal; font-variant-caps: normal; font-weight: 400; letter-spacing: normal; orphans: 2; text-align: left; text-indent: 0px; text-transform: none; widows: 2; word-spacing: 0px; -webkit-text-stroke-width: 0px; white-space: nowrap; background-color: rgb(255, 255, 255); text-decoration-thickness: initial; text-decoration-style: initial; text-decoration-color: initial; display: inline !important; float: none;&quot;&gt;1. 메일 쓰기 선택&lt;/span&gt;&lt;div style=&quot;forced-color-adjust: none; color: rgb(0, 0, 0); font-family: Helvetica; font-size: 11px; font-style: normal; font-variant-ligatures: normal; font-variant-caps: normal; font-weight: 400; letter-spacing: normal; orphans: 2; text-align: left; text-indent: 0px; text-transform: none; widows: 2; word-spacing: 0px; -webkit-text-stroke-width: 0px; white-space: nowrap; text-decoration-thickness: initial; text-decoration-style: initial; text-decoration-color: initial;&quot;&gt;3. 발신 메일 목록 선택&lt;/div&gt;" style="text;whiteSpace=wrap;html=1;" parent="1" vertex="1">
          <mxGeometry x="317" y="1942" width="152.5" height="40" as="geometry" />
        </mxCell>
        <mxCell id="88W-80z6NXVtviiwKCgK-158" value="" style="endArrow=open;endFill=1;endSize=12;html=1;rounded=0;" parent="1" edge="1">
          <mxGeometry width="160" relative="1" as="geometry">
            <mxPoint x="575" y="1990" as="sourcePoint" />
            <mxPoint x="675" y="1990" as="targetPoint" />
          </mxGeometry>
        </mxCell>
        <mxCell id="88W-80z6NXVtviiwKCgK-159" value="&lt;span style=&quot;font-size: 11px; text-wrap: nowrap; background-color: rgb(255, 255, 255);&quot;&gt;2. 보낸 메일 저장&lt;/span&gt;&lt;div&gt;&lt;span style=&quot;font-size: 11px; text-wrap: nowrap; background-color: rgb(255, 255, 255);&quot;&gt;4. 내가 보낸 메일 목록 검색&lt;/span&gt;&lt;/div&gt;" style="text;whiteSpace=wrap;html=1;" parent="1" vertex="1">
          <mxGeometry x="556.75" y="1940" width="152.5" height="40" as="geometry" />
        </mxCell>
        <mxCell id="88W-80z6NXVtviiwKCgK-160" value="" style="endArrow=open;endFill=1;endSize=12;html=1;rounded=0;" parent="1" edge="1">
          <mxGeometry width="160" relative="1" as="geometry">
            <mxPoint x="432" y="2020" as="sourcePoint" />
            <mxPoint x="330" y="2020" as="targetPoint" />
          </mxGeometry>
        </mxCell>
        <mxCell id="88W-80z6NXVtviiwKCgK-161" value="&lt;span style=&quot;font-size: 11px; text-wrap: nowrap; background-color: rgb(255, 255, 255);&quot;&gt;6. 내가 보낸 메일 목록 출력&lt;/span&gt;" style="text;whiteSpace=wrap;html=1;" parent="1" vertex="1">
          <mxGeometry x="320" y="2030" width="140" height="30" as="geometry" />
        </mxCell>
        <mxCell id="88W-80z6NXVtviiwKCgK-162" value="" style="endArrow=open;endFill=1;endSize=12;html=1;rounded=0;" parent="1" edge="1">
          <mxGeometry width="160" relative="1" as="geometry">
            <mxPoint x="675" y="2020" as="sourcePoint" />
            <mxPoint x="573" y="2020" as="targetPoint" />
          </mxGeometry>
        </mxCell>
        <mxCell id="88W-80z6NXVtviiwKCgK-163" value="&lt;span style=&quot;font-size: 11px; text-wrap: nowrap; background-color: rgb(255, 255, 255);&quot;&gt;5. 리스트 제공&lt;/span&gt;" style="text;whiteSpace=wrap;html=1;" parent="1" vertex="1">
          <mxGeometry x="590" y="2028" width="77" height="20" as="geometry" />
        </mxCell>
        <mxCell id="CxO0_cY2as7vrh8StBCu-1" value="" style="html=1;whiteSpace=wrap;" parent="1" vertex="1">
          <mxGeometry x="390" y="2350" width="439.5" height="215" as="geometry" />
        </mxCell>
        <mxCell id="CxO0_cY2as7vrh8StBCu-3" value="사용자" style="shape=umlActor;verticalLabelPosition=bottom;verticalAlign=top;html=1;" parent="1" vertex="1">
          <mxGeometry x="301" y="2355" width="58" height="120" as="geometry" />
        </mxCell>
        <mxCell id="CxO0_cY2as7vrh8StBCu-4" value="서버" style="shape=umlActor;verticalLabelPosition=bottom;verticalAlign=top;html=1;" parent="1" vertex="1">
          <mxGeometry x="860" y="2355" width="58" height="120" as="geometry" />
        </mxCell>
        <mxCell id="CxO0_cY2as7vrh8StBCu-5" value="내게 보낸 메일&lt;div&gt;목록 확인&lt;/div&gt;" style="ellipse;whiteSpace=wrap;html=1;" parent="1" vertex="1">
          <mxGeometry x="539.99" y="2380" width="140" height="70" as="geometry" />
        </mxCell>
        <mxCell id="CxO0_cY2as7vrh8StBCu-6" value="내게 쓰기" style="ellipse;whiteSpace=wrap;html=1;" parent="1" vertex="1">
          <mxGeometry x="438.5" y="2490" width="113" height="50" as="geometry" />
        </mxCell>
        <mxCell id="CxO0_cY2as7vrh8StBCu-7" value="내게 보낸&lt;div&gt;메일 읽기&lt;/div&gt;" style="ellipse;whiteSpace=wrap;html=1;" parent="1" vertex="1">
          <mxGeometry x="677" y="2490" width="113" height="50" as="geometry" />
        </mxCell>
        <mxCell id="CxO0_cY2as7vrh8StBCu-8" value="&amp;lt;&amp;lt;include&amp;gt;&amp;gt;" style="endArrow=open;endSize=12;dashed=1;html=1;rounded=0;exitX=1;exitY=0;exitDx=0;exitDy=0;" parent="1" source="CxO0_cY2as7vrh8StBCu-6" target="CxO0_cY2as7vrh8StBCu-5" edge="1">
          <mxGeometry width="160" relative="1" as="geometry">
            <mxPoint x="550" y="2390" as="sourcePoint" />
            <mxPoint x="710" y="2390" as="targetPoint" />
          </mxGeometry>
        </mxCell>
        <mxCell id="CxO0_cY2as7vrh8StBCu-9" value="&amp;lt;&amp;lt;extend&amp;gt;&amp;gt;" style="endArrow=open;endSize=12;dashed=1;html=1;rounded=0;exitX=0;exitY=0;exitDx=0;exitDy=0;entryX=0.767;entryY=0.959;entryDx=0;entryDy=0;entryPerimeter=0;" parent="1" source="CxO0_cY2as7vrh8StBCu-7" target="CxO0_cY2as7vrh8StBCu-5" edge="1">
          <mxGeometry width="160" relative="1" as="geometry">
            <mxPoint x="545" y="2507" as="sourcePoint" />
            <mxPoint x="590" y="2463" as="targetPoint" />
          </mxGeometry>
        </mxCell>
        <mxCell id="CxO0_cY2as7vrh8StBCu-13" value="" style="endArrow=none;html=1;edgeStyle=orthogonalEdgeStyle;rounded=0;entryX=0;entryY=0.5;entryDx=0;entryDy=0;" parent="1" target="CxO0_cY2as7vrh8StBCu-5" edge="1">
          <mxGeometry relative="1" as="geometry">
            <mxPoint x="330" y="2410" as="sourcePoint" />
            <mxPoint x="490" y="2410" as="targetPoint" />
            <Array as="points">
              <mxPoint x="330" y="2415" />
            </Array>
          </mxGeometry>
        </mxCell>
        <mxCell id="CxO0_cY2as7vrh8StBCu-16" value="" style="endArrow=none;html=1;edgeStyle=orthogonalEdgeStyle;rounded=0;entryX=0;entryY=0.5;entryDx=0;entryDy=0;" parent="1" edge="1">
          <mxGeometry relative="1" as="geometry">
            <mxPoint x="680" y="2412.5" as="sourcePoint" />
            <mxPoint x="890" y="2417.5" as="targetPoint" />
            <Array as="points">
              <mxPoint x="680" y="2417.5" />
            </Array>
          </mxGeometry>
        </mxCell>
        <mxCell id="CxO0_cY2as7vrh8StBCu-17" value="" style="html=1;whiteSpace=wrap;" parent="1" vertex="1">
          <mxGeometry x="244.37" y="2790" width="730.75" height="520" as="geometry" />
        </mxCell>
        <mxCell id="CxO0_cY2as7vrh8StBCu-18" value="" style="html=1;whiteSpace=wrap;" parent="1" vertex="1">
          <mxGeometry x="389.75" y="2950" width="439.5" height="215" as="geometry" />
        </mxCell>
        <mxCell id="CxO0_cY2as7vrh8StBCu-19" value="사용자" style="shape=umlActor;verticalLabelPosition=bottom;verticalAlign=top;html=1;" parent="1" vertex="1">
          <mxGeometry x="300.75" y="2955" width="58" height="120" as="geometry" />
        </mxCell>
        <mxCell id="CxO0_cY2as7vrh8StBCu-20" value="서버" style="shape=umlActor;verticalLabelPosition=bottom;verticalAlign=top;html=1;" parent="1" vertex="1">
          <mxGeometry x="859.75" y="2955" width="58" height="120" as="geometry" />
        </mxCell>
        <mxCell id="CxO0_cY2as7vrh8StBCu-21" value="내가 보낸 메일&lt;div&gt;목록 확인&lt;/div&gt;" style="ellipse;whiteSpace=wrap;html=1;" parent="1" vertex="1">
          <mxGeometry x="539.74" y="2980" width="140" height="70" as="geometry" />
        </mxCell>
        <mxCell id="CxO0_cY2as7vrh8StBCu-22" value="메일 쓰기" style="ellipse;whiteSpace=wrap;html=1;" parent="1" vertex="1">
          <mxGeometry x="438.25" y="3090" width="113" height="50" as="geometry" />
        </mxCell>
        <mxCell id="CxO0_cY2as7vrh8StBCu-23" value="내가 보낸&lt;div&gt;메일 읽기&lt;/div&gt;" style="ellipse;whiteSpace=wrap;html=1;" parent="1" vertex="1">
          <mxGeometry x="676.75" y="3090" width="113" height="50" as="geometry" />
        </mxCell>
        <mxCell id="CxO0_cY2as7vrh8StBCu-24" value="&amp;lt;&amp;lt;include&amp;gt;&amp;gt;" style="endArrow=open;endSize=12;dashed=1;html=1;rounded=0;exitX=1;exitY=0;exitDx=0;exitDy=0;" parent="1" source="CxO0_cY2as7vrh8StBCu-22" target="CxO0_cY2as7vrh8StBCu-21" edge="1">
          <mxGeometry width="160" relative="1" as="geometry">
            <mxPoint x="549.75" y="2990" as="sourcePoint" />
            <mxPoint x="709.75" y="2990" as="targetPoint" />
          </mxGeometry>
        </mxCell>
        <mxCell id="CxO0_cY2as7vrh8StBCu-25" value="&amp;lt;&amp;lt;extend&amp;gt;&amp;gt;" style="endArrow=open;endSize=12;dashed=1;html=1;rounded=0;exitX=0;exitY=0;exitDx=0;exitDy=0;entryX=0.767;entryY=0.959;entryDx=0;entryDy=0;entryPerimeter=0;" parent="1" source="CxO0_cY2as7vrh8StBCu-23" target="CxO0_cY2as7vrh8StBCu-21" edge="1">
          <mxGeometry width="160" relative="1" as="geometry">
            <mxPoint x="544.75" y="3107" as="sourcePoint" />
            <mxPoint x="589.75" y="3063" as="targetPoint" />
          </mxGeometry>
        </mxCell>
        <mxCell id="CxO0_cY2as7vrh8StBCu-26" value="" style="endArrow=none;html=1;edgeStyle=orthogonalEdgeStyle;rounded=0;entryX=0;entryY=0.5;entryDx=0;entryDy=0;" parent="1" target="CxO0_cY2as7vrh8StBCu-21" edge="1">
          <mxGeometry relative="1" as="geometry">
            <mxPoint x="329.75" y="3010" as="sourcePoint" />
            <mxPoint x="489.75" y="3010" as="targetPoint" />
            <Array as="points">
              <mxPoint x="329.75" y="3015" />
            </Array>
          </mxGeometry>
        </mxCell>
        <mxCell id="CxO0_cY2as7vrh8StBCu-27" value="" style="endArrow=none;html=1;edgeStyle=orthogonalEdgeStyle;rounded=0;entryX=0;entryY=0.5;entryDx=0;entryDy=0;" parent="1" edge="1">
          <mxGeometry relative="1" as="geometry">
            <mxPoint x="679.75" y="3012.5" as="sourcePoint" />
            <mxPoint x="889.75" y="3017.5" as="targetPoint" />
            <Array as="points">
              <mxPoint x="679.75" y="3017.5" />
            </Array>
          </mxGeometry>
        </mxCell>
        <mxCell id="CxO0_cY2as7vrh8StBCu-46" value="" style="html=1;whiteSpace=wrap;" parent="1" vertex="1">
          <mxGeometry x="230" y="3420" width="790" height="470" as="geometry" />
        </mxCell>
        <mxCell id="CxO0_cY2as7vrh8StBCu-47" value="" style="html=1;whiteSpace=wrap;" parent="1" vertex="1">
          <mxGeometry x="280" y="3470" width="690" height="370" as="geometry" />
        </mxCell>
        <mxCell id="CxO0_cY2as7vrh8StBCu-48" value="MessageFormatter" style="swimlane;fontStyle=1;align=center;verticalAlign=top;childLayout=stackLayout;horizontal=1;startSize=26;horizontalStack=0;resizeParent=1;resizeParentMax=0;resizeLast=0;collapsible=1;marginBottom=0;whiteSpace=wrap;html=1;" parent="1" vertex="1">
          <mxGeometry x="307" y="3500" width="280" height="110" as="geometry" />
        </mxCell>
        <mxCell id="CxO0_cY2as7vrh8StBCu-49" value="- userid : string&lt;div&gt;- subject : string&lt;/div&gt;" style="text;strokeColor=none;fillColor=none;align=left;verticalAlign=top;spacingLeft=4;spacingRight=4;overflow=hidden;rotatable=0;points=[[0,0.5],[1,0.5]];portConstraint=eastwest;whiteSpace=wrap;html=1;" parent="CxO0_cY2as7vrh8StBCu-48" vertex="1">
          <mxGeometry y="26" width="280" height="34" as="geometry" />
        </mxCell>
        <mxCell id="CxO0_cY2as7vrh8StBCu-50" value="" style="line;strokeWidth=1;fillColor=none;align=left;verticalAlign=middle;spacingTop=-1;spacingLeft=3;spacingRight=3;rotatable=0;labelPosition=right;points=[];portConstraint=eastwest;strokeColor=inherit;" parent="CxO0_cY2as7vrh8StBCu-48" vertex="1">
          <mxGeometry y="60" width="280" height="8" as="geometry" />
        </mxCell>
        <mxCell id="CxO0_cY2as7vrh8StBCu-51" value="+ MessageFomatter()&lt;div&gt;+ getSendMeTable(messages : Message[]) : String&lt;/div&gt;" style="text;strokeColor=none;fillColor=none;align=left;verticalAlign=top;spacingLeft=4;spacingRight=4;overflow=hidden;rotatable=0;points=[[0,0.5],[1,0.5]];portConstraint=eastwest;whiteSpace=wrap;html=1;" parent="CxO0_cY2as7vrh8StBCu-48" vertex="1">
          <mxGeometry y="68" width="280" height="42" as="geometry" />
        </mxCell>
        <mxCell id="CxO0_cY2as7vrh8StBCu-52" value="Pop3Agent" style="swimlane;fontStyle=1;align=center;verticalAlign=top;childLayout=stackLayout;horizontal=1;startSize=26;horizontalStack=0;resizeParent=1;resizeParentMax=0;resizeLast=0;collapsible=1;marginBottom=0;whiteSpace=wrap;html=1;" parent="1" vertex="1">
          <mxGeometry x="455" y="3660" width="320" height="140" as="geometry" />
        </mxCell>
        <mxCell id="32kIbE2JY_AFLUl8WdDU-1" value="" style="endArrow=open;endFill=1;endSize=12;html=1;rounded=0;exitX=0.532;exitY=0.967;exitDx=0;exitDy=0;exitPerimeter=0;entryX=0.614;entryY=1.048;entryDx=0;entryDy=0;entryPerimeter=0;" parent="CxO0_cY2as7vrh8StBCu-52" target="CxO0_cY2as7vrh8StBCu-51" edge="1">
          <mxGeometry width="160" relative="1" as="geometry">
            <mxPoint x="75" y="0.003999999999450665" as="sourcePoint" />
            <mxPoint x="154.03999999999996" y="51.38999999999987" as="targetPoint" />
          </mxGeometry>
        </mxCell>
        <mxCell id="CxO0_cY2as7vrh8StBCu-53" value="- host : string&lt;div&gt;- uesrid : string&lt;/div&gt;&lt;div&gt;- password : string&lt;/div&gt;&lt;div&gt;- store : Store&lt;/div&gt;" style="text;strokeColor=none;fillColor=none;align=left;verticalAlign=top;spacingLeft=4;spacingRight=4;overflow=hidden;rotatable=0;points=[[0,0.5],[1,0.5]];portConstraint=eastwest;whiteSpace=wrap;html=1;" parent="CxO0_cY2as7vrh8StBCu-52" vertex="1">
          <mxGeometry y="26" width="320" height="64" as="geometry" />
        </mxCell>
        <mxCell id="CxO0_cY2as7vrh8StBCu-54" value="" style="line;strokeWidth=1;fillColor=none;align=left;verticalAlign=middle;spacingTop=-1;spacingLeft=3;spacingRight=3;rotatable=0;labelPosition=right;points=[];portConstraint=eastwest;strokeColor=inherit;" parent="CxO0_cY2as7vrh8StBCu-52" vertex="1">
          <mxGeometry y="90" width="320" height="8" as="geometry" />
        </mxCell>
        <mxCell id="CxO0_cY2as7vrh8StBCu-55" value="+ PopAgent(host : String, userid : String, password : void)&lt;div&gt;+ getSendMeList() : String&lt;/div&gt;" style="text;strokeColor=none;fillColor=none;align=left;verticalAlign=top;spacingLeft=4;spacingRight=4;overflow=hidden;rotatable=0;points=[[0,0.5],[1,0.5]];portConstraint=eastwest;whiteSpace=wrap;html=1;" parent="CxO0_cY2as7vrh8StBCu-52" vertex="1">
          <mxGeometry y="98" width="320" height="42" as="geometry" />
        </mxCell>
        <mxCell id="CxO0_cY2as7vrh8StBCu-56" value="ReadController" style="swimlane;fontStyle=1;align=center;verticalAlign=top;childLayout=stackLayout;horizontal=1;startSize=26;horizontalStack=0;resizeParent=1;resizeParentMax=0;resizeLast=0;collapsible=1;marginBottom=0;whiteSpace=wrap;html=1;" parent="1" vertex="1">
          <mxGeometry x="667" y="3524" width="230" height="86" as="geometry" />
        </mxCell>
        <mxCell id="CxO0_cY2as7vrh8StBCu-57" value="- session : HttpServieRequest" style="text;strokeColor=none;fillColor=none;align=left;verticalAlign=top;spacingLeft=4;spacingRight=4;overflow=hidden;rotatable=0;points=[[0,0.5],[1,0.5]];portConstraint=eastwest;whiteSpace=wrap;html=1;" parent="CxO0_cY2as7vrh8StBCu-56" vertex="1">
          <mxGeometry y="26" width="230" height="26" as="geometry" />
        </mxCell>
        <mxCell id="CxO0_cY2as7vrh8StBCu-58" value="" style="line;strokeWidth=1;fillColor=none;align=left;verticalAlign=middle;spacingTop=-1;spacingLeft=3;spacingRight=3;rotatable=0;labelPosition=right;points=[];portConstraint=eastwest;strokeColor=inherit;" parent="CxO0_cY2as7vrh8StBCu-56" vertex="1">
          <mxGeometry y="52" width="230" height="8" as="geometry" />
        </mxCell>
        <mxCell id="CxO0_cY2as7vrh8StBCu-59" value="+ showSendMe(model : Model) : String" style="text;strokeColor=none;fillColor=none;align=left;verticalAlign=top;spacingLeft=4;spacingRight=4;overflow=hidden;rotatable=0;points=[[0,0.5],[1,0.5]];portConstraint=eastwest;whiteSpace=wrap;html=1;" parent="CxO0_cY2as7vrh8StBCu-56" vertex="1">
          <mxGeometry y="60" width="230" height="26" as="geometry" />
        </mxCell>
        <mxCell id="CxO0_cY2as7vrh8StBCu-70" value="" style="html=1;whiteSpace=wrap;" parent="1" vertex="1">
          <mxGeometry x="225" y="3960" width="795" height="590" as="geometry" />
        </mxCell>
        <mxCell id="CxO0_cY2as7vrh8StBCu-71" value="" style="html=1;whiteSpace=wrap;" parent="1" vertex="1">
          <mxGeometry x="286" y="4010" width="674" height="420" as="geometry" />
        </mxCell>
        <mxCell id="CxO0_cY2as7vrh8StBCu-76" value="SentEmailService" style="swimlane;fontStyle=1;align=center;verticalAlign=top;childLayout=stackLayout;horizontal=1;startSize=26;horizontalStack=0;resizeParent=1;resizeParentMax=0;resizeLast=0;collapsible=1;marginBottom=0;whiteSpace=wrap;html=1;" parent="1" vertex="1">
          <mxGeometry x="505" y="4180" width="280" height="86" as="geometry" />
        </mxCell>
        <mxCell id="CxO0_cY2as7vrh8StBCu-77" value="- SentEmailRepository : SentEmailRepository" style="text;strokeColor=none;fillColor=none;align=left;verticalAlign=top;spacingLeft=4;spacingRight=4;overflow=hidden;rotatable=0;points=[[0,0.5],[1,0.5]];portConstraint=eastwest;whiteSpace=wrap;html=1;" parent="CxO0_cY2as7vrh8StBCu-76" vertex="1">
          <mxGeometry y="26" width="280" height="26" as="geometry" />
        </mxCell>
        <mxCell id="CxO0_cY2as7vrh8StBCu-78" value="" style="line;strokeWidth=1;fillColor=none;align=left;verticalAlign=middle;spacingTop=-1;spacingLeft=3;spacingRight=3;rotatable=0;labelPosition=right;points=[];portConstraint=eastwest;strokeColor=inherit;" parent="CxO0_cY2as7vrh8StBCu-76" vertex="1">
          <mxGeometry y="52" width="280" height="8" as="geometry" />
        </mxCell>
        <mxCell id="CxO0_cY2as7vrh8StBCu-79" value="+ findByUsename(String) : List&amp;lt;SentEmail&amp;gt;" style="text;strokeColor=none;fillColor=none;align=left;verticalAlign=top;spacingLeft=4;spacingRight=4;overflow=hidden;rotatable=0;points=[[0,0.5],[1,0.5]];portConstraint=eastwest;whiteSpace=wrap;html=1;" parent="CxO0_cY2as7vrh8StBCu-76" vertex="1">
          <mxGeometry y="60" width="280" height="26" as="geometry" />
        </mxCell>
        <mxCell id="CxO0_cY2as7vrh8StBCu-80" value="ReadController" style="swimlane;fontStyle=1;align=center;verticalAlign=top;childLayout=stackLayout;horizontal=1;startSize=26;horizontalStack=0;resizeParent=1;resizeParentMax=0;resizeLast=0;collapsible=1;marginBottom=0;whiteSpace=wrap;html=1;" parent="1" vertex="1">
          <mxGeometry x="525" y="4310" width="220" height="104" as="geometry" />
        </mxCell>
        <mxCell id="CxO0_cY2as7vrh8StBCu-81" value="- session : HttpSession&lt;div&gt;- SentEmailService : SentEmailService&lt;/div&gt;" style="text;strokeColor=none;fillColor=none;align=left;verticalAlign=top;spacingLeft=4;spacingRight=4;overflow=hidden;rotatable=0;points=[[0,0.5],[1,0.5]];portConstraint=eastwest;whiteSpace=wrap;html=1;" parent="CxO0_cY2as7vrh8StBCu-80" vertex="1">
          <mxGeometry y="26" width="220" height="44" as="geometry" />
        </mxCell>
        <mxCell id="CxO0_cY2as7vrh8StBCu-82" value="" style="line;strokeWidth=1;fillColor=none;align=left;verticalAlign=middle;spacingTop=-1;spacingLeft=3;spacingRight=3;rotatable=0;labelPosition=right;points=[];portConstraint=eastwest;strokeColor=inherit;" parent="CxO0_cY2as7vrh8StBCu-80" vertex="1">
          <mxGeometry y="70" width="220" height="8" as="geometry" />
        </mxCell>
        <mxCell id="CxO0_cY2as7vrh8StBCu-83" value="+ showSent(int, Model) : String" style="text;strokeColor=none;fillColor=none;align=left;verticalAlign=top;spacingLeft=4;spacingRight=4;overflow=hidden;rotatable=0;points=[[0,0.5],[1,0.5]];portConstraint=eastwest;whiteSpace=wrap;html=1;" parent="CxO0_cY2as7vrh8StBCu-80" vertex="1">
          <mxGeometry y="78" width="220" height="26" as="geometry" />
        </mxCell>
        <mxCell id="CxO0_cY2as7vrh8StBCu-85" value="" style="endArrow=open;endFill=1;endSize=12;html=1;rounded=0;entryX=0.421;entryY=0.985;entryDx=0;entryDy=0;entryPerimeter=0;" parent="1" source="CxO0_cY2as7vrh8StBCu-80" target="CxO0_cY2as7vrh8StBCu-79" edge="1">
          <mxGeometry width="160" relative="1" as="geometry">
            <mxPoint x="510" y="4260" as="sourcePoint" />
            <mxPoint x="670" y="4260" as="targetPoint" />
          </mxGeometry>
        </mxCell>
        <mxCell id="32kIbE2JY_AFLUl8WdDU-2" value="&amp;lt;&amp;lt;create&amp;gt;&amp;gt;" style="endArrow=open;endSize=12;dashed=1;html=1;rounded=0;exitX=0.352;exitY=1.115;exitDx=0;exitDy=0;exitPerimeter=0;" parent="1" source="CxO0_cY2as7vrh8StBCu-59" target="CxO0_cY2as7vrh8StBCu-52" edge="1">
          <mxGeometry width="160" relative="1" as="geometry">
            <mxPoint x="746" y="3630" as="sourcePoint" />
            <mxPoint x="906" y="3630" as="targetPoint" />
          </mxGeometry>
        </mxCell>
        <mxCell id="32kIbE2JY_AFLUl8WdDU-3" value="" style="html=1;whiteSpace=wrap;" parent="1" vertex="1">
          <mxGeometry x="212.25" y="4590" width="1088" height="660" as="geometry" />
        </mxCell>
        <mxCell id="32kIbE2JY_AFLUl8WdDU-4" value="" style="html=1;whiteSpace=wrap;" parent="1" vertex="1">
          <mxGeometry x="280" y="4660" width="970" height="460" as="geometry" />
        </mxCell>
        <mxCell id="32kIbE2JY_AFLUl8WdDU-5" value="SpringSecurityConfig" style="swimlane;fontStyle=1;align=center;verticalAlign=top;childLayout=stackLayout;horizontal=1;startSize=26;horizontalStack=0;resizeParent=1;resizeParentMax=0;resizeLast=0;collapsible=1;marginBottom=0;whiteSpace=wrap;html=1;" parent="1" vertex="1">
          <mxGeometry x="556" y="4810" width="360" height="150" as="geometry" />
        </mxCell>
        <mxCell id="32kIbE2JY_AFLUl8WdDU-6" value="- httpSession : HttpSession&lt;div&gt;- log : Logger&lt;/div&gt;" style="text;strokeColor=none;fillColor=none;align=left;verticalAlign=top;spacingLeft=4;spacingRight=4;overflow=hidden;rotatable=0;points=[[0,0.5],[1,0.5]];portConstraint=eastwest;whiteSpace=wrap;html=1;" parent="32kIbE2JY_AFLUl8WdDU-5" vertex="1">
          <mxGeometry y="26" width="360" height="44" as="geometry" />
        </mxCell>
        <mxCell id="32kIbE2JY_AFLUl8WdDU-7" value="" style="line;strokeWidth=1;fillColor=none;align=left;verticalAlign=middle;spacingTop=-1;spacingLeft=3;spacingRight=3;rotatable=0;labelPosition=right;points=[];portConstraint=eastwest;strokeColor=inherit;" parent="32kIbE2JY_AFLUl8WdDU-5" vertex="1">
          <mxGeometry y="70" width="360" height="8" as="geometry" />
        </mxCell>
        <mxCell id="32kIbE2JY_AFLUl8WdDU-8" value="+ filterChain(HttpSecurity) : SecurityFilterChain&lt;div&gt;+ paawordEnoder() : PasswordEncoder&lt;/div&gt;&lt;div&gt;+ webSecurityCustomizer() : WebSecurityCustomizer&lt;/div&gt;&lt;div&gt;+ myUerDetailsService(DataSoure) : MyUerDetailsService&lt;/div&gt;" style="text;strokeColor=none;fillColor=none;align=left;verticalAlign=top;spacingLeft=4;spacingRight=4;overflow=hidden;rotatable=0;points=[[0,0.5],[1,0.5]];portConstraint=eastwest;whiteSpace=wrap;html=1;" parent="32kIbE2JY_AFLUl8WdDU-5" vertex="1">
          <mxGeometry y="78" width="360" height="72" as="geometry" />
        </mxCell>
        <mxCell id="32kIbE2JY_AFLUl8WdDU-10" value="" style="html=1;whiteSpace=wrap;" parent="1" vertex="1">
          <mxGeometry x="250" y="5400" width="1420" height="490" as="geometry" />
        </mxCell>
        <mxCell id="32kIbE2JY_AFLUl8WdDU-11" value="" style="html=1;whiteSpace=wrap;" parent="1" vertex="1">
          <mxGeometry x="300" y="5530" width="1240" height="240" as="geometry" />
        </mxCell>
        <mxCell id="32kIbE2JY_AFLUl8WdDU-12" value=":user" style="html=1;whiteSpace=wrap;" parent="1" vertex="1">
          <mxGeometry x="327" y="5580" width="163" height="140" as="geometry" />
        </mxCell>
        <mxCell id="32kIbE2JY_AFLUl8WdDU-42" value=":Spring Security System" style="html=1;whiteSpace=wrap;" parent="1" vertex="1">
          <mxGeometry x="638.5" y="5580" width="161.5" height="140" as="geometry" />
        </mxCell>
        <mxCell id="32kIbE2JY_AFLUl8WdDU-43" value="&lt;span style=&quot;color: rgb(13, 13, 13); font-family: Söhne, ui-sans-serif, system-ui, -apple-system, &amp;quot;Segoe UI&amp;quot;, Roboto, Ubuntu, Cantarell, &amp;quot;Noto Sans&amp;quot;, sans-serif, &amp;quot;Helvetica Neue&amp;quot;, Arial, &amp;quot;Apple Color Emoji&amp;quot;, &amp;quot;Segoe UI Emoji&amp;quot;, &amp;quot;Segoe UI Symbol&amp;quot;, &amp;quot;Noto Color Emoji&amp;quot;; font-size: 16px; text-align: left; white-space-collapse: preserve; background-color: rgb(255, 255, 255);&quot;&gt;:HttpSession&lt;/span&gt;" style="html=1;whiteSpace=wrap;" parent="1" vertex="1">
          <mxGeometry x="990" y="5580" width="170" height="140" as="geometry" />
        </mxCell>
        <mxCell id="32kIbE2JY_AFLUl8WdDU-44" value="&lt;span style=&quot;color: rgb(13, 13, 13); font-family: Söhne, ui-sans-serif, system-ui, -apple-system, &amp;quot;Segoe UI&amp;quot;, Roboto, Ubuntu, Cantarell, &amp;quot;Noto Sans&amp;quot;, sans-serif, &amp;quot;Helvetica Neue&amp;quot;, Arial, &amp;quot;Apple Color Emoji&amp;quot;, &amp;quot;Segoe UI Emoji&amp;quot;, &amp;quot;Segoe UI Symbol&amp;quot;, &amp;quot;Noto Color Emoji&amp;quot;; font-size: 16px; text-align: left; white-space-collapse: preserve; background-color: rgb(255, 255, 255);&quot;&gt;:HttpServletResponse&lt;/span&gt;" style="html=1;whiteSpace=wrap;" parent="1" vertex="1">
          <mxGeometry x="1340" y="5580" width="170" height="140" as="geometry" />
        </mxCell>
        <mxCell id="TwQGyyYRVa6aG29kBln0-1" value="" style="line;strokeWidth=1;fillColor=none;align=left;verticalAlign=middle;spacingTop=-1;spacingLeft=3;spacingRight=3;rotatable=0;labelPosition=right;points=[];portConstraint=eastwest;strokeColor=inherit;" parent="1" vertex="1">
          <mxGeometry x="489" y="5636" width="150" height="8" as="geometry" />
        </mxCell>
        <mxCell id="TwQGyyYRVa6aG29kBln0-2" value="" style="line;strokeWidth=1;fillColor=none;align=left;verticalAlign=middle;spacingTop=-1;spacingLeft=3;spacingRight=3;rotatable=0;labelPosition=right;points=[];portConstraint=eastwest;strokeColor=inherit;" parent="1" vertex="1">
          <mxGeometry x="800" y="5636" width="190" height="8" as="geometry" />
        </mxCell>
        <mxCell id="TwQGyyYRVa6aG29kBln0-3" value="" style="line;strokeWidth=1;fillColor=none;align=left;verticalAlign=middle;spacingTop=-1;spacingLeft=3;spacingRight=3;rotatable=0;labelPosition=right;points=[];portConstraint=eastwest;strokeColor=inherit;" parent="1" vertex="1">
          <mxGeometry x="1160" y="5636" width="180" height="8" as="geometry" />
        </mxCell>
        <mxCell id="TwQGyyYRVa6aG29kBln0-4" value="" style="endArrow=open;endFill=1;endSize=12;html=1;rounded=0;" parent="1" edge="1">
          <mxGeometry width="160" relative="1" as="geometry">
            <mxPoint x="489" y="5600" as="sourcePoint" />
            <mxPoint x="640" y="5600" as="targetPoint" />
          </mxGeometry>
        </mxCell>
        <mxCell id="TwQGyyYRVa6aG29kBln0-5" value="1. 로그인 요청" style="edgeLabel;html=1;align=center;verticalAlign=middle;resizable=0;points=[];" parent="TwQGyyYRVa6aG29kBln0-4" vertex="1" connectable="0">
          <mxGeometry x="-0.4431" relative="1" as="geometry">
            <mxPoint x="12" y="-10" as="offset" />
          </mxGeometry>
        </mxCell>
        <mxCell id="TwQGyyYRVa6aG29kBln0-6" value="" style="endArrow=open;endFill=1;endSize=12;html=1;rounded=0;entryX=0;entryY=0.25;entryDx=0;entryDy=0;exitX=1;exitY=0.25;exitDx=0;exitDy=0;" parent="1" source="32kIbE2JY_AFLUl8WdDU-42" target="32kIbE2JY_AFLUl8WdDU-43" edge="1">
          <mxGeometry width="160" relative="1" as="geometry">
            <mxPoint x="800" y="5610" as="sourcePoint" />
            <mxPoint x="960" y="5610" as="targetPoint" />
          </mxGeometry>
        </mxCell>
        <mxCell id="TwQGyyYRVa6aG29kBln0-7" value="2. 로그인 확인&lt;div&gt;3. 인증 성공 알림&lt;/div&gt;" style="edgeLabel;html=1;align=center;verticalAlign=middle;resizable=0;points=[];" parent="TwQGyyYRVa6aG29kBln0-6" vertex="1" connectable="0">
          <mxGeometry x="-0.5597" y="-3" relative="1" as="geometry">
            <mxPoint x="43" y="-19" as="offset" />
          </mxGeometry>
        </mxCell>
        <mxCell id="vAHX2rdUMR_E_m7VLbg6-1" value="" style="endArrow=open;endFill=1;endSize=12;html=1;rounded=0;" parent="1" edge="1">
          <mxGeometry width="160" relative="1" as="geometry">
            <mxPoint x="1160" y="5610" as="sourcePoint" />
            <mxPoint x="1340" y="5610" as="targetPoint" />
          </mxGeometry>
        </mxCell>
        <mxCell id="vAHX2rdUMR_E_m7VLbg6-2" value="4. 사용자 정보 저장" style="edgeLabel;html=1;align=center;verticalAlign=middle;resizable=0;points=[];" parent="vAHX2rdUMR_E_m7VLbg6-1" vertex="1" connectable="0">
          <mxGeometry x="-0.5597" y="-3" relative="1" as="geometry">
            <mxPoint x="43" y="-19" as="offset" />
          </mxGeometry>
        </mxCell>
        <mxCell id="vAHX2rdUMR_E_m7VLbg6-5" value="" style="endArrow=open;endFill=1;endSize=12;html=1;rounded=0;entryX=0.988;entryY=0.684;entryDx=0;entryDy=0;entryPerimeter=0;exitX=-0.004;exitY=0.684;exitDx=0;exitDy=0;exitPerimeter=0;" parent="1" source="32kIbE2JY_AFLUl8WdDU-43" target="32kIbE2JY_AFLUl8WdDU-42" edge="1">
          <mxGeometry width="160" relative="1" as="geometry">
            <mxPoint x="840" y="5600" as="sourcePoint" />
            <mxPoint x="1000" y="5600" as="targetPoint" />
          </mxGeometry>
        </mxCell>
        <mxCell id="vAHX2rdUMR_E_m7VLbg6-6" value="5. 사용자 역할 확인" style="edgeLabel;html=1;align=center;verticalAlign=middle;resizable=0;points=[];" parent="vAHX2rdUMR_E_m7VLbg6-5" vertex="1" connectable="0">
          <mxGeometry x="0.5498" relative="1" as="geometry">
            <mxPoint x="42" y="-9" as="offset" />
          </mxGeometry>
        </mxCell>
        <mxCell id="vAHX2rdUMR_E_m7VLbg6-7" value="" style="endArrow=open;endFill=1;endSize=12;html=1;rounded=0;entryX=0.011;entryY=0.838;entryDx=0;entryDy=0;entryPerimeter=0;" parent="1" target="32kIbE2JY_AFLUl8WdDU-43" edge="1">
          <mxGeometry width="160" relative="1" as="geometry">
            <mxPoint x="798" y="5697" as="sourcePoint" />
            <mxPoint x="960" y="5680" as="targetPoint" />
          </mxGeometry>
        </mxCell>
        <mxCell id="vAHX2rdUMR_E_m7VLbg6-8" value="6. 페이지 설정 및 리디렉션" style="edgeLabel;html=1;align=center;verticalAlign=middle;resizable=0;points=[];" parent="vAHX2rdUMR_E_m7VLbg6-7" vertex="1" connectable="0">
          <mxGeometry x="-0.0717" relative="1" as="geometry">
            <mxPoint y="10" as="offset" />
          </mxGeometry>
        </mxCell>
        <mxCell id="vAHX2rdUMR_E_m7VLbg6-10" value="" style="endArrow=open;endFill=1;endSize=12;html=1;rounded=0;entryX=1;entryY=0.75;entryDx=0;entryDy=0;exitX=0;exitY=0.75;exitDx=0;exitDy=0;" parent="1" edge="1">
          <mxGeometry width="160" relative="1" as="geometry">
            <mxPoint x="1340" y="5684.999999999999" as="sourcePoint" />
            <mxPoint x="1160" y="5684.999999999999" as="targetPoint" />
          </mxGeometry>
        </mxCell>
        <mxCell id="vAHX2rdUMR_E_m7VLbg6-11" value="7. 리디렉션된 페이지 응답" style="edgeLabel;html=1;align=center;verticalAlign=middle;resizable=0;points=[];" parent="vAHX2rdUMR_E_m7VLbg6-10" vertex="1" connectable="0">
          <mxGeometry x="0.2678" y="-1" relative="1" as="geometry">
            <mxPoint x="25" y="11" as="offset" />
          </mxGeometry>
        </mxCell>
        <mxCell id="vAHX2rdUMR_E_m7VLbg6-12" value="" style="endArrow=open;endFill=1;endSize=12;html=1;rounded=0;exitX=0;exitY=0.75;exitDx=0;exitDy=0;entryX=1;entryY=0.75;entryDx=0;entryDy=0;" parent="1" edge="1">
          <mxGeometry width="160" relative="1" as="geometry">
            <mxPoint x="638.5" y="5684" as="sourcePoint" />
            <mxPoint x="490" y="5684" as="targetPoint" />
          </mxGeometry>
        </mxCell>
        <mxCell id="vAHX2rdUMR_E_m7VLbg6-13" value="8. 리디렉션된 페이지 응답" style="edgeLabel;html=1;align=center;verticalAlign=middle;resizable=0;points=[];" parent="vAHX2rdUMR_E_m7VLbg6-12" vertex="1" connectable="0">
          <mxGeometry x="-0.2943" y="-1" relative="1" as="geometry">
            <mxPoint x="-14" y="11" as="offset" />
          </mxGeometry>
        </mxCell>
        <mxCell id="vAHX2rdUMR_E_m7VLbg6-19" value="MyUerDetailsService" style="swimlane;fontStyle=1;align=center;verticalAlign=top;childLayout=stackLayout;horizontal=1;startSize=26;horizontalStack=0;resizeParent=1;resizeParentMax=0;resizeLast=0;collapsible=1;marginBottom=0;whiteSpace=wrap;html=1;" parent="1" vertex="1">
          <mxGeometry x="385" y="5010" width="270" height="100" as="geometry" />
        </mxCell>
        <mxCell id="vAHX2rdUMR_E_m7VLbg6-20" value="- jdbcManager : JdbcUserDetailsManager" style="text;strokeColor=none;fillColor=none;align=left;verticalAlign=top;spacingLeft=4;spacingRight=4;overflow=hidden;rotatable=0;points=[[0,0.5],[1,0.5]];portConstraint=eastwest;whiteSpace=wrap;html=1;" parent="vAHX2rdUMR_E_m7VLbg6-19" vertex="1">
          <mxGeometry y="26" width="270" height="26" as="geometry" />
        </mxCell>
        <mxCell id="vAHX2rdUMR_E_m7VLbg6-21" value="" style="line;strokeWidth=1;fillColor=none;align=left;verticalAlign=middle;spacingTop=-1;spacingLeft=3;spacingRight=3;rotatable=0;labelPosition=right;points=[];portConstraint=eastwest;strokeColor=inherit;" parent="vAHX2rdUMR_E_m7VLbg6-19" vertex="1">
          <mxGeometry y="52" width="270" height="8" as="geometry" />
        </mxCell>
        <mxCell id="vAHX2rdUMR_E_m7VLbg6-22" value="+ loadUserByUsername(String) : UserDetails&lt;div&gt;+ passwordEncoder() : PasswordEncoder&lt;/div&gt;" style="text;strokeColor=none;fillColor=none;align=left;verticalAlign=top;spacingLeft=4;spacingRight=4;overflow=hidden;rotatable=0;points=[[0,0.5],[1,0.5]];portConstraint=eastwest;whiteSpace=wrap;html=1;" parent="vAHX2rdUMR_E_m7VLbg6-19" vertex="1">
          <mxGeometry y="60" width="270" height="40" as="geometry" />
        </mxCell>
        <mxCell id="vAHX2rdUMR_E_m7VLbg6-27" value="" style="html=1;whiteSpace=wrap;" parent="1" vertex="1">
          <mxGeometry x="270" y="6020" width="730" height="430" as="geometry" />
        </mxCell>
        <mxCell id="vAHX2rdUMR_E_m7VLbg6-28" value="" style="html=1;whiteSpace=wrap;" parent="1" vertex="1">
          <mxGeometry x="340" y="6140" width="600" height="190" as="geometry" />
        </mxCell>
        <mxCell id="vAHX2rdUMR_E_m7VLbg6-29" value=":User" style="html=1;whiteSpace=wrap;" parent="1" vertex="1">
          <mxGeometry x="381" y="6190" width="109" height="90" as="geometry" />
        </mxCell>
        <mxCell id="vAHX2rdUMR_E_m7VLbg6-30" value=":CustomAuthenticationFailureHandler" style="html=1;whiteSpace=wrap;" parent="1" vertex="1">
          <mxGeometry x="670.5" y="6191" width="223" height="89" as="geometry" />
        </mxCell>
        <mxCell id="vAHX2rdUMR_E_m7VLbg6-31" value="" style="endArrow=none;html=1;edgeStyle=orthogonalEdgeStyle;rounded=0;entryX=0;entryY=0.5;entryDx=0;entryDy=0;" parent="1" target="vAHX2rdUMR_E_m7VLbg6-30" edge="1">
          <mxGeometry relative="1" as="geometry">
            <mxPoint x="490" y="6240" as="sourcePoint" />
            <mxPoint x="650" y="6240" as="targetPoint" />
            <Array as="points">
              <mxPoint x="670" y="6240" />
            </Array>
          </mxGeometry>
        </mxCell>
        <mxCell id="vAHX2rdUMR_E_m7VLbg6-37" value="" style="endArrow=block;endFill=1;html=1;edgeStyle=orthogonalEdgeStyle;align=left;verticalAlign=top;rounded=0;entryX=0.013;entryY=0.213;entryDx=0;entryDy=0;entryPerimeter=0;" parent="1" target="vAHX2rdUMR_E_m7VLbg6-30" edge="1">
          <mxGeometry x="-1" relative="1" as="geometry">
            <mxPoint x="490" y="6210" as="sourcePoint" />
            <mxPoint x="650" y="6210" as="targetPoint" />
          </mxGeometry>
        </mxCell>
        <mxCell id="vAHX2rdUMR_E_m7VLbg6-38" value="1. 로그인 요청&lt;div&gt;2. 로그인 실패&lt;/div&gt;" style="edgeLabel;resizable=0;html=1;align=left;verticalAlign=bottom;" parent="vAHX2rdUMR_E_m7VLbg6-37" connectable="0" vertex="1">
          <mxGeometry x="-1" relative="1" as="geometry">
            <mxPoint x="27" y="-3" as="offset" />
          </mxGeometry>
        </mxCell>
        <mxCell id="vAHX2rdUMR_E_m7VLbg6-39" value="" style="endArrow=block;endFill=1;html=1;edgeStyle=orthogonalEdgeStyle;align=left;verticalAlign=top;rounded=0;exitX=0;exitY=0.75;exitDx=0;exitDy=0;entryX=1;entryY=0.75;entryDx=0;entryDy=0;" parent="1" source="vAHX2rdUMR_E_m7VLbg6-30" target="vAHX2rdUMR_E_m7VLbg6-29" edge="1">
          <mxGeometry x="-1" relative="1" as="geometry">
            <mxPoint x="550" y="6340" as="sourcePoint" />
            <mxPoint x="710" y="6340" as="targetPoint" />
          </mxGeometry>
        </mxCell>
        <mxCell id="vAHX2rdUMR_E_m7VLbg6-41" value="3. 실패 메시지와 함께 리디렉션" style="edgeLabel;html=1;align=center;verticalAlign=middle;resizable=0;points=[];" parent="vAHX2rdUMR_E_m7VLbg6-39" vertex="1" connectable="0">
          <mxGeometry x="-0.1003" y="3" relative="1" as="geometry">
            <mxPoint x="-4" y="9" as="offset" />
          </mxGeometry>
        </mxCell>
        <mxCell id="vAHX2rdUMR_E_m7VLbg6-42" value="" style="html=1;whiteSpace=wrap;" parent="1" vertex="1">
          <mxGeometry x="270" y="6480" width="730" height="510" as="geometry" />
        </mxCell>
        <mxCell id="vAHX2rdUMR_E_m7VLbg6-43" value="" style="html=1;whiteSpace=wrap;" parent="1" vertex="1">
          <mxGeometry x="390" y="6510" width="585" height="380" as="geometry" />
        </mxCell>
        <mxCell id="vAHX2rdUMR_E_m7VLbg6-48" value="CustomAuthenticationFailureHandler" style="swimlane;fontStyle=1;align=center;verticalAlign=top;childLayout=stackLayout;horizontal=1;startSize=26;horizontalStack=0;resizeParent=1;resizeParentMax=0;resizeLast=0;collapsible=1;marginBottom=0;whiteSpace=wrap;html=1;" parent="1" vertex="1">
          <mxGeometry x="412" y="6640" width="546" height="90" as="geometry" />
        </mxCell>
        <mxCell id="vAHX2rdUMR_E_m7VLbg6-49" value="- httpSession : HttpSession" style="text;strokeColor=none;fillColor=none;align=left;verticalAlign=top;spacingLeft=4;spacingRight=4;overflow=hidden;rotatable=0;points=[[0,0.5],[1,0.5]];portConstraint=eastwest;whiteSpace=wrap;html=1;" parent="vAHX2rdUMR_E_m7VLbg6-48" vertex="1">
          <mxGeometry y="26" width="546" height="26" as="geometry" />
        </mxCell>
        <mxCell id="vAHX2rdUMR_E_m7VLbg6-50" value="" style="line;strokeWidth=1;fillColor=none;align=left;verticalAlign=middle;spacingTop=-1;spacingLeft=3;spacingRight=3;rotatable=0;labelPosition=right;points=[];portConstraint=eastwest;strokeColor=inherit;" parent="vAHX2rdUMR_E_m7VLbg6-48" vertex="1">
          <mxGeometry y="52" width="546" height="8" as="geometry" />
        </mxCell>
        <mxCell id="vAHX2rdUMR_E_m7VLbg6-51" value="&lt;div&gt;&lt;span style=&quot;background-color: initial;&quot;&gt;+&amp;nbsp;onAuthenticationFailure(HttpServletRequest, HttpServletResponse,AuthenticationException): void&lt;/span&gt;&lt;br&gt;&lt;/div&gt;" style="text;strokeColor=none;fillColor=none;align=left;verticalAlign=top;spacingLeft=4;spacingRight=4;overflow=hidden;rotatable=0;points=[[0,0.5],[1,0.5]];portConstraint=eastwest;whiteSpace=wrap;html=1;" parent="vAHX2rdUMR_E_m7VLbg6-48" vertex="1">
          <mxGeometry y="60" width="546" height="30" as="geometry" />
        </mxCell>
        <mxCell id="vAHX2rdUMR_E_m7VLbg6-52" value="User" style="swimlane;fontStyle=1;align=center;verticalAlign=top;childLayout=stackLayout;horizontal=1;startSize=26;horizontalStack=0;resizeParent=1;resizeParentMax=0;resizeLast=0;collapsible=1;marginBottom=0;whiteSpace=wrap;html=1;" parent="1" vertex="1">
          <mxGeometry x="539.74" y="6760" width="280" height="110" as="geometry" />
        </mxCell>
        <mxCell id="vAHX2rdUMR_E_m7VLbg6-53" value="- userid : String&lt;div&gt;- password : String&lt;/div&gt;" style="text;strokeColor=none;fillColor=none;align=left;verticalAlign=top;spacingLeft=4;spacingRight=4;overflow=hidden;rotatable=0;points=[[0,0.5],[1,0.5]];portConstraint=eastwest;whiteSpace=wrap;html=1;" parent="vAHX2rdUMR_E_m7VLbg6-52" vertex="1">
          <mxGeometry y="26" width="280" height="44" as="geometry" />
        </mxCell>
        <mxCell id="vAHX2rdUMR_E_m7VLbg6-54" value="" style="line;strokeWidth=1;fillColor=none;align=left;verticalAlign=middle;spacingTop=-1;spacingLeft=3;spacingRight=3;rotatable=0;labelPosition=right;points=[];portConstraint=eastwest;strokeColor=inherit;" parent="vAHX2rdUMR_E_m7VLbg6-52" vertex="1">
          <mxGeometry y="70" width="280" height="8" as="geometry" />
        </mxCell>
        <mxCell id="vAHX2rdUMR_E_m7VLbg6-55" value="+ login(userid : String, password : String) : void" style="text;strokeColor=none;fillColor=none;align=left;verticalAlign=top;spacingLeft=4;spacingRight=4;overflow=hidden;rotatable=0;points=[[0,0.5],[1,0.5]];portConstraint=eastwest;whiteSpace=wrap;html=1;" parent="vAHX2rdUMR_E_m7VLbg6-52" vertex="1">
          <mxGeometry y="78" width="280" height="32" as="geometry" />
        </mxCell>
        <mxCell id="bIDCjnlytsBY8CfDJMsw-1" value="SentEmailRepository" style="swimlane;fontStyle=1;align=center;verticalAlign=top;childLayout=stackLayout;horizontal=1;startSize=26;horizontalStack=0;resizeParent=1;resizeParentMax=0;resizeLast=0;collapsible=1;marginBottom=0;whiteSpace=wrap;html=1;" parent="1" vertex="1">
          <mxGeometry x="315" y="4040" width="430" height="60" as="geometry" />
        </mxCell>
        <mxCell id="bIDCjnlytsBY8CfDJMsw-3" value="" style="line;strokeWidth=1;fillColor=none;align=left;verticalAlign=middle;spacingTop=-1;spacingLeft=3;spacingRight=3;rotatable=0;labelPosition=right;points=[];portConstraint=eastwest;strokeColor=inherit;" parent="bIDCjnlytsBY8CfDJMsw-1" vertex="1">
          <mxGeometry y="26" width="430" height="8" as="geometry" />
        </mxCell>
        <mxCell id="bIDCjnlytsBY8CfDJMsw-4" value="+ findByUerUernameOrderBySentAtDesc(String, Pageble) Page&amp;lt;SentEmail&amp;gt;" style="text;strokeColor=none;fillColor=none;align=left;verticalAlign=top;spacingLeft=4;spacingRight=4;overflow=hidden;rotatable=0;points=[[0,0.5],[1,0.5]];portConstraint=eastwest;whiteSpace=wrap;html=1;" parent="bIDCjnlytsBY8CfDJMsw-1" vertex="1">
          <mxGeometry y="34" width="430" height="26" as="geometry" />
        </mxCell>
        <mxCell id="bIDCjnlytsBY8CfDJMsw-5" value="" style="endArrow=open;endFill=1;endSize=12;html=1;rounded=0;exitX=0.456;exitY=-0.008;exitDx=0;exitDy=0;exitPerimeter=0;" parent="1" source="CxO0_cY2as7vrh8StBCu-76" target="bIDCjnlytsBY8CfDJMsw-4" edge="1">
          <mxGeometry width="160" relative="1" as="geometry">
            <mxPoint x="510" y="4290" as="sourcePoint" />
            <mxPoint x="670" y="4290" as="targetPoint" />
          </mxGeometry>
        </mxCell>
        <mxCell id="bIDCjnlytsBY8CfDJMsw-6" value="SentEmail" style="swimlane;fontStyle=1;align=center;verticalAlign=top;childLayout=stackLayout;horizontal=1;startSize=26;horizontalStack=0;resizeParent=1;resizeParentMax=0;resizeLast=0;collapsible=1;marginBottom=0;whiteSpace=wrap;html=1;" parent="1" vertex="1">
          <mxGeometry x="770" y="4042" width="160" height="34" as="geometry" />
        </mxCell>
        <mxCell id="bIDCjnlytsBY8CfDJMsw-8" value="" style="line;strokeWidth=1;fillColor=none;align=left;verticalAlign=middle;spacingTop=-1;spacingLeft=3;spacingRight=3;rotatable=0;labelPosition=right;points=[];portConstraint=eastwest;strokeColor=inherit;" parent="bIDCjnlytsBY8CfDJMsw-6" vertex="1">
          <mxGeometry y="26" width="160" height="8" as="geometry" />
        </mxCell>
        <mxCell id="bIDCjnlytsBY8CfDJMsw-10" value="&amp;lt;&amp;lt;create&amp;gt;&amp;gt;" style="endArrow=open;endSize=12;dashed=1;html=1;rounded=0;exitX=0.766;exitY=-0.026;exitDx=0;exitDy=0;exitPerimeter=0;entryX=0.5;entryY=1;entryDx=0;entryDy=0;" parent="1" source="CxO0_cY2as7vrh8StBCu-76" target="bIDCjnlytsBY8CfDJMsw-6" edge="1">
          <mxGeometry width="160" relative="1" as="geometry">
            <mxPoint x="710" y="4150" as="sourcePoint" />
            <mxPoint x="870" y="4150" as="targetPoint" />
          </mxGeometry>
        </mxCell>
        <mxCell id="bIDCjnlytsBY8CfDJMsw-11" value="AuthenticationFailureHandler" style="swimlane;fontStyle=1;align=center;verticalAlign=top;childLayout=stackLayout;horizontal=1;startSize=26;horizontalStack=0;resizeParent=1;resizeParentMax=0;resizeLast=0;collapsible=1;marginBottom=0;whiteSpace=wrap;html=1;" parent="1" vertex="1">
          <mxGeometry x="412" y="6530" width="548" height="60" as="geometry" />
        </mxCell>
        <mxCell id="bIDCjnlytsBY8CfDJMsw-13" value="" style="line;strokeWidth=1;fillColor=none;align=left;verticalAlign=middle;spacingTop=-1;spacingLeft=3;spacingRight=3;rotatable=0;labelPosition=right;points=[];portConstraint=eastwest;strokeColor=inherit;" parent="bIDCjnlytsBY8CfDJMsw-11" vertex="1">
          <mxGeometry y="26" width="548" height="8" as="geometry" />
        </mxCell>
        <mxCell id="bIDCjnlytsBY8CfDJMsw-14" value="+&amp;nbsp;onAuthenticationFailure(HttpServletRequest, HttpServletResponse,AuthenticationException): void" style="text;strokeColor=none;fillColor=none;align=left;verticalAlign=top;spacingLeft=4;spacingRight=4;overflow=hidden;rotatable=0;points=[[0,0.5],[1,0.5]];portConstraint=eastwest;whiteSpace=wrap;html=1;" parent="bIDCjnlytsBY8CfDJMsw-11" vertex="1">
          <mxGeometry y="34" width="548" height="26" as="geometry" />
        </mxCell>
        <mxCell id="bIDCjnlytsBY8CfDJMsw-15" value="" style="endArrow=open;endFill=1;endSize=12;html=1;rounded=0;exitX=0.489;exitY=0.027;exitDx=0;exitDy=0;exitPerimeter=0;entryX=0.489;entryY=1;entryDx=0;entryDy=0;entryPerimeter=0;" parent="1" source="vAHX2rdUMR_E_m7VLbg6-48" target="bIDCjnlytsBY8CfDJMsw-14" edge="1">
          <mxGeometry width="160" relative="1" as="geometry">
            <mxPoint x="620" y="6610" as="sourcePoint" />
            <mxPoint x="780" y="6610" as="targetPoint" />
          </mxGeometry>
        </mxCell>
        <mxCell id="bIDCjnlytsBY8CfDJMsw-16" value="" style="endArrow=open;endFill=1;endSize=12;html=1;rounded=0;exitX=0.5;exitY=0;exitDx=0;exitDy=0;entryX=0.489;entryY=0.938;entryDx=0;entryDy=0;entryPerimeter=0;" parent="1" source="vAHX2rdUMR_E_m7VLbg6-52" target="vAHX2rdUMR_E_m7VLbg6-51" edge="1">
          <mxGeometry width="160" relative="1" as="geometry">
            <mxPoint x="650" y="6740" as="sourcePoint" />
            <mxPoint x="810" y="6740" as="targetPoint" />
          </mxGeometry>
        </mxCell>
        <mxCell id="toHnHFrmX22jJvIXh8HY-1" value="&amp;lt;&amp;lt;create&amp;gt;&amp;gt;" style="endArrow=open;endSize=12;dashed=1;html=1;rounded=0;" parent="1" source="32kIbE2JY_AFLUl8WdDU-8" target="vAHX2rdUMR_E_m7VLbg6-19" edge="1">
          <mxGeometry width="160" relative="1" as="geometry">
            <mxPoint x="570" y="4850" as="sourcePoint" />
            <mxPoint x="730" y="4850" as="targetPoint" />
          </mxGeometry>
        </mxCell>
        <mxCell id="toHnHFrmX22jJvIXh8HY-2" value="MySimpleUrlAuthenticationSuccessHandler" style="swimlane;fontStyle=1;align=center;verticalAlign=top;childLayout=stackLayout;horizontal=1;startSize=26;horizontalStack=0;resizeParent=1;resizeParentMax=0;resizeLast=0;collapsible=1;marginBottom=0;whiteSpace=wrap;html=1;" parent="1" vertex="1">
          <mxGeometry x="745" y="5030" width="321" height="34" as="geometry" />
        </mxCell>
        <mxCell id="toHnHFrmX22jJvIXh8HY-4" value="" style="line;strokeWidth=1;fillColor=none;align=left;verticalAlign=middle;spacingTop=-1;spacingLeft=3;spacingRight=3;rotatable=0;labelPosition=right;points=[];portConstraint=eastwest;strokeColor=inherit;" parent="toHnHFrmX22jJvIXh8HY-2" vertex="1">
          <mxGeometry y="26" width="321" height="8" as="geometry" />
        </mxCell>
        <mxCell id="toHnHFrmX22jJvIXh8HY-10" value="AuthenticationSuccessHandler" style="swimlane;fontStyle=1;align=center;verticalAlign=top;childLayout=stackLayout;horizontal=1;startSize=26;horizontalStack=0;resizeParent=1;resizeParentMax=0;resizeLast=0;collapsible=1;marginBottom=0;whiteSpace=wrap;html=1;" parent="1" vertex="1">
          <mxGeometry x="771" y="4690" width="470" height="60" as="geometry" />
        </mxCell>
        <mxCell id="toHnHFrmX22jJvIXh8HY-12" value="" style="line;strokeWidth=1;fillColor=none;align=left;verticalAlign=middle;spacingTop=-1;spacingLeft=3;spacingRight=3;rotatable=0;labelPosition=right;points=[];portConstraint=eastwest;strokeColor=inherit;" parent="toHnHFrmX22jJvIXh8HY-10" vertex="1">
          <mxGeometry y="26" width="470" height="8" as="geometry" />
        </mxCell>
        <mxCell id="toHnHFrmX22jJvIXh8HY-13" value="+ onAuthenticationSuccess(in request, response, authentication: Authentication):void" style="text;strokeColor=none;fillColor=none;align=left;verticalAlign=top;spacingLeft=4;spacingRight=4;overflow=hidden;rotatable=0;points=[[0,0.5],[1,0.5]];portConstraint=eastwest;whiteSpace=wrap;html=1;" parent="toHnHFrmX22jJvIXh8HY-10" vertex="1">
          <mxGeometry y="34" width="470" height="26" as="geometry" />
        </mxCell>
        <mxCell id="toHnHFrmX22jJvIXh8HY-14" value="UserDetailsService" style="swimlane;fontStyle=1;align=center;verticalAlign=top;childLayout=stackLayout;horizontal=1;startSize=26;horizontalStack=0;resizeParent=1;resizeParentMax=0;resizeLast=0;collapsible=1;marginBottom=0;whiteSpace=wrap;html=1;" parent="1" vertex="1">
          <mxGeometry x="301" y="4700" width="310" height="60" as="geometry" />
        </mxCell>
        <mxCell id="toHnHFrmX22jJvIXh8HY-16" value="" style="line;strokeWidth=1;fillColor=none;align=left;verticalAlign=middle;spacingTop=-1;spacingLeft=3;spacingRight=3;rotatable=0;labelPosition=right;points=[];portConstraint=eastwest;strokeColor=inherit;" parent="toHnHFrmX22jJvIXh8HY-14" vertex="1">
          <mxGeometry y="26" width="310" height="8" as="geometry" />
        </mxCell>
        <mxCell id="toHnHFrmX22jJvIXh8HY-17" value="loadUserByUsername(in username:string):UserDetails" style="text;strokeColor=none;fillColor=none;align=left;verticalAlign=top;spacingLeft=4;spacingRight=4;overflow=hidden;rotatable=0;points=[[0,0.5],[1,0.5]];portConstraint=eastwest;whiteSpace=wrap;html=1;" parent="toHnHFrmX22jJvIXh8HY-14" vertex="1">
          <mxGeometry y="34" width="310" height="26" as="geometry" />
        </mxCell>
        <mxCell id="toHnHFrmX22jJvIXh8HY-18" value="UserDetailsManager" style="swimlane;fontStyle=1;align=center;verticalAlign=top;childLayout=stackLayout;horizontal=1;startSize=26;horizontalStack=0;resizeParent=1;resizeParentMax=0;resizeLast=0;collapsible=1;marginBottom=0;whiteSpace=wrap;html=1;" parent="1" vertex="1">
          <mxGeometry x="301" y="4850" width="160" height="34" as="geometry" />
        </mxCell>
        <mxCell id="toHnHFrmX22jJvIXh8HY-20" value="" style="line;strokeWidth=1;fillColor=none;align=left;verticalAlign=middle;spacingTop=-1;spacingLeft=3;spacingRight=3;rotatable=0;labelPosition=right;points=[];portConstraint=eastwest;strokeColor=inherit;" parent="toHnHFrmX22jJvIXh8HY-18" vertex="1">
          <mxGeometry y="26" width="160" height="8" as="geometry" />
        </mxCell>
        <mxCell id="toHnHFrmX22jJvIXh8HY-22" value="" style="endArrow=block;endSize=16;endFill=0;html=1;rounded=0;entryX=0.435;entryY=1.115;entryDx=0;entryDy=0;entryPerimeter=0;" parent="1" source="toHnHFrmX22jJvIXh8HY-18" target="toHnHFrmX22jJvIXh8HY-17" edge="1">
          <mxGeometry width="160" relative="1" as="geometry">
            <mxPoint x="325" y="4800" as="sourcePoint" />
            <mxPoint x="485" y="4800" as="targetPoint" />
          </mxGeometry>
        </mxCell>
        <mxCell id="toHnHFrmX22jJvIXh8HY-23" value="" style="endArrow=block;endSize=16;endFill=0;html=1;rounded=0;exitX=0.5;exitY=0;exitDx=0;exitDy=0;" parent="1" source="vAHX2rdUMR_E_m7VLbg6-19" target="toHnHFrmX22jJvIXh8HY-17" edge="1">
          <mxGeometry width="160" relative="1" as="geometry">
            <mxPoint x="396" y="4860" as="sourcePoint" />
            <mxPoint x="421" y="4776" as="targetPoint" />
          </mxGeometry>
        </mxCell>
        <mxCell id="toHnHFrmX22jJvIXh8HY-24" value="&amp;lt;&amp;lt;create&amp;gt;&amp;gt;" style="endArrow=open;endSize=12;dashed=1;html=1;rounded=0;exitX=0.658;exitY=1;exitDx=0;exitDy=0;exitPerimeter=0;entryX=0.293;entryY=0.088;entryDx=0;entryDy=0;entryPerimeter=0;" parent="1" source="32kIbE2JY_AFLUl8WdDU-8" target="toHnHFrmX22jJvIXh8HY-2" edge="1">
          <mxGeometry width="160" relative="1" as="geometry">
            <mxPoint x="789.25" y="4980" as="sourcePoint" />
            <mxPoint x="709.25" y="5030" as="targetPoint" />
          </mxGeometry>
        </mxCell>
        <mxCell id="toHnHFrmX22jJvIXh8HY-25" value="" style="endArrow=block;dashed=1;endFill=0;endSize=12;html=1;rounded=0;" parent="1" source="toHnHFrmX22jJvIXh8HY-2" target="toHnHFrmX22jJvIXh8HY-13" edge="1">
          <mxGeometry width="160" relative="1" as="geometry">
            <mxPoint x="970" y="4930" as="sourcePoint" />
            <mxPoint x="1130" y="4930" as="targetPoint" />
          </mxGeometry>
        </mxCell>
      </root>
    </mxGraphModel>
  </diagram>
</mxfile>
